<svg xmlns="http://www.w3.org/2000/svg" xmlns:xlink="http://www.w3.org/1999/xlink" viewBox="0 0 294.85 121.805"><defs><style>.a{fill:#7f3f98;}.b{fill:#fff;}.c{fill:#9d8730;}.d{clip-path:url(#a);}.e{clip-path:url(#b);}.f{fill:#00a14b;}</style><clipPath id="a"><path class="a" d="M289.883,24.172a27.576,27.576,0,0,0-1.406-3.627l-1.567-3.754-3.132-7.507a7.282,7.282,0,0,0-1.463-2.511,5.61,5.61,0,0,0-3.267-1.565A5.43,5.43,0,0,0,276.1,5.6a6.037,6.037,0,0,0-2.72,2.327q-3.471,4.977-7.165,9.793a266.272,266.272,0,0,1-28.162,30.919q-3.483,3.267-7.084,6.4c-27.45.319-54.906.621-82.353-.013-13.979-.323-27.936-1.1-41.91-1.541a389.207,389.207,0,0,0-41.367.946C49.726,55.6,34.183,57.505,18.647,59.407a7.471,7.471,0,0,0-3.011.876,5.427,5.427,0,0,0-.69-.851,5.69,5.69,0,0,0-8.046,0,5.915,5.915,0,0,0-1.667,4.024V92.489c0,.113.005.226.013.339-.007.15-.01.3,0,.453a5.781,5.781,0,0,0,5.69,5.689c30.032-.45,60.077-.9,90.107-.061,29.506.825,58.993,3.037,88.527,2.439a339.226,339.226,0,0,0,48.773-4.267,4.4,4.4,0,0,0,.957.072,5.749,5.749,0,0,0,4.023-1.667,7.414,7.414,0,0,0,.64-.8,4.991,4.991,0,0,0,2.178-2.1,134.363,134.363,0,0,1,12.191-19.518q1.655-2.252,3.361-4.466c5.162-6.655,10.527-13.151,15.668-19.824,2.5-3.251,4.947-6.549,7.264-9.937q1.719-2.514,3.337-5.1a17.67,17.67,0,0,0,1.889-3.863A10.382,10.382,0,0,0,289.883,24.172Z"/></clipPath><clipPath id="b"><path class="b" d="M277.725,6.254a5.705,5.705,0,0,0-5.2-3.5L215.016,2.5l-57.25-.257-57.51-.259L71.631,1.854c-4.722-.022-9.81-.557-14.449.5-4.847,1.1-7.958,4.911-11.019,8.5Q36.9,21.7,27.634,32.549L18.369,43.4A91.979,91.979,0,0,0,10.03,54.147a34.919,34.919,0,0,0-2.161,4.075,5.47,5.47,0,0,0-2.588,4.725,5.788,5.788,0,0,0,5.69,5.69l105.9-.2,101.063-.187a1.774,1.774,0,0,1,.281-.032c1.086-.032,2.171-.018,3.255.026h.412l0,.02c3.162.147,6.315.522,9.473.722q.811-.065,1.626-.094c.15-.223.3-.447.45-.669l1.1,0c2.374-3.9,5.263-7.478,7.6-11.394l-.819,0q3.729-5.25,7.579-10.413,2.111-2.826,4.258-5.627l.646-.841q.421-.544.844-1.088,1.122-1.44,2.252-2.873,4.446-5.634,9.04-11.151,5.217-6.264,10.619-12.37A5.768,5.768,0,0,0,277.725,6.254ZM60.85,13.2a1.1,1.1,0,0,1-.362.054A.966.966,0,0,1,60.85,13.2Z"/></clipPath></defs><title>bed</title><path class="c" d="M18.633,97.153a2.658,2.658,0,0,0-1.642-2.377,17.873,17.873,0,0,0-4.739-.975,6.657,6.657,0,0,0-2.269-.059,2.531,2.531,0,0,0-.711.286l0-.012a1.98,1.98,0,1,0-3.817,1.053,111.065,111.065,0,0,1,3.167,14.053c.357,2.269.62,4.423.833,6.8.127,1.425.193,2.9,1.605,3.688a3.258,3.258,0,0,0,1.839.367c.233-.019.463-.063.7-.087.128-.013.8.04.326-.049a2.02,2.02,0,0,0,2.5-1.909l2-18.631A14.068,14.068,0,0,0,18.633,97.153Zm-5.541,14.934-.043.4L13,112.1C13.031,112.1,13.063,112.094,13.092,112.087Z"/><path class="c" d="M248.1,112.809a30.91,30.91,0,0,1-.711-5.37c-.117-1.922-.141-3.846-.18-5.77s-.092-3.85-.268-5.767c-.1-1.091-.238-2.182-.419-3.264a3.86,3.86,0,0,0-.41-1.415,2.263,2.263,0,0,0-2.2-1.07A12.608,12.608,0,0,0,240.9,91.31a4.882,4.882,0,0,0-2.54,1.817,3.479,3.479,0,0,0-.5,1.957q-.559-1.064-1.153-2.11a1.979,1.979,0,1,0-3.417,2q1.537,2.709,2.839,5.543c.8,1.758,1.491,3.461,2.177,5.4a71.185,71.185,0,0,1,3.08,11.942c.285,1.7,2.659,1.824,3.538.617.113-.031.211-.059.245-.066h0l.157-.021c.188-.025.377-.048.564-.08a3.556,3.556,0,0,0,.71-.195,2.986,2.986,0,0,0,1.941-2.043A7.16,7.16,0,0,0,248.1,112.809Z"/><path class="c" d="M290.781,27.207a1.979,1.979,0,1,0-3.958,0q-.031,2.253-.046,4.506a2.688,2.688,0,0,0-1.068-.255,6.91,6.91,0,0,0-2.752.969c-1.49.668-3.549,1.169-4.1,2.9a5.724,5.724,0,0,0,.209,2.731l.465,2.413.931,4.827,1.815,9.413a23.076,23.076,0,0,0,.681,3.235,1.786,1.786,0,0,0,.568,1.245c.049.043.1.083.149.124.07.089.143.176.221.26a3.275,3.275,0,0,0,4.408.381,2.218,2.218,0,0,0,1.574-.015,1.969,1.969,0,0,0,1.216-1.808Q290.563,42.676,290.781,27.207Z"/><path class="a" d="M289.883,24.172a27.576,27.576,0,0,0-1.406-3.627l-1.567-3.754-3.132-7.507a7.282,7.282,0,0,0-1.463-2.511,5.61,5.61,0,0,0-3.267-1.565A5.43,5.43,0,0,0,276.1,5.6a6.037,6.037,0,0,0-2.72,2.327q-3.471,4.977-7.165,9.793a266.272,266.272,0,0,1-28.162,30.919q-3.483,3.267-7.084,6.4c-27.45.319-54.906.621-82.353-.013-13.979-.323-27.936-1.1-41.91-1.541a389.207,389.207,0,0,0-41.367.946C49.726,55.6,34.183,57.505,18.647,59.407a7.471,7.471,0,0,0-3.011.876,5.427,5.427,0,0,0-.69-.851,5.69,5.69,0,0,0-8.046,0,5.915,5.915,0,0,0-1.667,4.024V92.489c0,.113.005.226.013.339-.007.15-.01.3,0,.453a5.781,5.781,0,0,0,5.69,5.689c30.032-.45,60.077-.9,90.107-.061,29.506.825,58.993,3.037,88.527,2.439a339.226,339.226,0,0,0,48.773-4.267,4.4,4.4,0,0,0,.957.072,5.749,5.749,0,0,0,4.023-1.667,7.414,7.414,0,0,0,.64-.8,4.991,4.991,0,0,0,2.178-2.1,134.363,134.363,0,0,1,12.191-19.518q1.655-2.252,3.361-4.466c5.162-6.655,10.527-13.151,15.668-19.824,2.5-3.251,4.947-6.549,7.264-9.937q1.719-2.514,3.337-5.1a17.67,17.67,0,0,0,1.889-3.863A10.382,10.382,0,0,0,289.883,24.172Z"/><g class="d"><path class="b" d="M77.359,101.918q-.519-13.428-.442-26.87.023-3.822.093-7.643a1.942,1.942,0,0,0-.448-1.239c.008-.027.018-.053.024-.081A2.024,2.024,0,0,0,75.2,63.651a80,80,0,0,0-10.512-2.7c-3.573-.66-7.168-1.007-10.784-1.315a34.5,34.5,0,0,1-4.868-.667,22.143,22.143,0,0,1-2.3-.643c-.844-.286-1.549-.572-2.224-.876-3.164-1.421-6.2-3.08-9.407-4.422A79.487,79.487,0,0,0,15.4,47.613,81,81,0,0,0,5,46.791a9.681,9.681,0,0,0-4.734.9,5.971,5.971,0,0,0-2.814,4.126c-.809,3.565-1.3,7.232-1.754,10.857q-.684,5.492-.939,11.024a125.546,125.546,0,0,0,.637,21.307c.42,3.344,1.369,6.568,4.176,8.681,2.555,1.923,5.879,2.334,8.963,2.668a101.41,101.41,0,0,0,20.551-.218c13.658-1.31,27.343-4.094,41.117-2.894q1.242.108,2.478.261c.638.079,1.358.187,2.173.323A2.009,2.009,0,0,0,77.359,101.918Z"/></g><path class="b" d="M277.725,6.254a5.705,5.705,0,0,0-5.2-3.5L215.016,2.5l-57.25-.257-57.51-.259L71.631,1.854c-4.722-.022-9.81-.557-14.449.5-4.847,1.1-7.958,4.911-11.019,8.5Q36.9,21.7,27.634,32.549L18.369,43.4A91.979,91.979,0,0,0,10.03,54.147a34.919,34.919,0,0,0-2.161,4.075,5.47,5.47,0,0,0-2.588,4.725,5.788,5.788,0,0,0,5.69,5.69l105.9-.2,101.063-.187a1.774,1.774,0,0,1,.281-.032c1.086-.032,2.171-.018,3.255.026h.412l0,.02c3.162.147,6.315.522,9.473.722q.811-.065,1.626-.094c.15-.223.3-.447.45-.669l1.1,0c2.374-3.9,5.263-7.478,7.6-11.394l-.819,0q3.729-5.25,7.579-10.413,2.111-2.826,4.258-5.627l.646-.841q.421-.544.844-1.088,1.122-1.44,2.252-2.873,4.446-5.634,9.04-11.151,5.217-6.264,10.619-12.37A5.768,5.768,0,0,0,277.725,6.254ZM60.85,13.2a1.1,1.1,0,0,1-.362.054A.966.966,0,0,1,60.85,13.2Z"/><g class="e"><path class="a" d="M278.988,18.647c.045-.1.091-.2.142-.3l.01-.027C278.62,19.149,278.8,18.98,278.988,18.647Z"/><path class="a" d="M291.646,12.172a24.512,24.512,0,0,0-2.153-9.68,18.877,18.877,0,0,0-6.247-7.469C278.055-8.829,271.09-9.32,264.854-9.25c-14.342.159-28.686.605-43.026.91l-43.262.923L135.1-6.489l-8.843.188a4.673,4.673,0,0,0-1.175-.911,5.74,5.74,0,0,0-4.384-.574,6.64,6.64,0,0,0-3.4,2.615A296.764,296.764,0,0,0,82.132,55.66c-2.785,6.49-5.384,13.054-7.733,19.715-1.253,3.556,2.009,7.174,5.487,7.2l43.515.348,43.31.346,43.515.348,21.655.173c4.291.034,9.352.811,12.728-2.43a15.225,15.225,0,0,0,2.893-4.645q1.006-2.055,2.136-4.048a90.748,90.748,0,0,1,5.112-7.994q.613-.861,1.243-1.709.368-.495.741-.987l.175-.227c-.2.264-.457.58-.1.121l.117-.148c.042-.055.085-.11.125-.166-.027.038-.067.091-.112.15q1.412-1.793,2.874-3.543c4.032-4.8,8.363-9.346,12.758-13.817C281.37,35.4,291.82,25.766,291.646,12.172ZM236.488,73.4c-.266.44-.753.773,0,0Z"/><path class="a" d="M256.909,61.752l.034-.043-.013.016Z"/></g><path class="f" d="M87.593,10.5c-.648-1.38-2.182-1.744-3.567-1.83-1.419-.089-2.842-.146-4.263-.188a147.157,147.157,0,0,0-16.812.468q-2.04.173-4.074.4a2.142,2.142,0,0,0-1.952.487,65.7,65.7,0,0,0-17.013,21.32,66.5,66.5,0,0,0-4.945,13.066q-.434,1.667-.775,3.355a15.62,15.62,0,0,0-.52,3.532,3.592,3.592,0,0,0,2.6,3.432,24.507,24.507,0,0,0,4.2.541q8.4.9,16.847,1.4,2.14.124,4.282.223a4.321,4.321,0,0,0,4.064-1.643,32.51,32.51,0,0,0,2.008-3.537l2.023-3.647,8.271-14.911c2.594-4.677,5.242-9.339,7.432-14.223.573-1.278,1.119-2.57,1.627-3.875C87.565,13.46,88.29,11.983,87.593,10.5Z"/></svg>