<svg xmlns="http://www.w3.org/2000/svg" xmlns:xlink="http://www.w3.org/1999/xlink" viewBox="0 0 190.331 214.913"><defs><style>.a{fill:none;}.b{fill:#eb5833;}.c{clip-path:url(#a);}.d{clip-path:url(#b);}.e{clip-path:url(#c);}.f{fill:#7f3f98;}</style><clipPath id="a"><rect class="a" x="-121.284" y="3.91" width="368.88" height="236.731"/></clipPath><clipPath id="b"><path class="a" d="M254.538,204.89q-.924-15.126-1.849-30.251a3.785,3.785,0,0,0,.055-.6Q252.2,89.272,251.663,4.5a3.209,3.209,0,0,0-2.186-3.147,3.711,3.711,0,0,0-1.49-.468A389.532,389.532,0,0,0,193.061-.766c-.065,0-.12.02-.183.025a3.65,3.65,0,0,0-4.49,3.285L176.939,174.308a3.562,3.562,0,0,0-.235,1.31q.135,16.4-.514,32.782a3.731,3.731,0,0,0,.075.89,2.981,2.981,0,0,0,3.32,2.685q35.256-2.311,70.6-1.352a4.038,4.038,0,0,0,2.461,0C255.419,210.211,256.051,206.778,254.538,204.89Z"/></clipPath><clipPath id="c"><path class="b" d="M188.867-.108c.185-3.559-4.141-4.284-6.081-2.22a3.147,3.147,0,0,0-2.5-1c-29.139.662-58.314,1.325-87.44-.15C64.43-4.92,36.689-8.89,8.25-5.578c-2.081-1.3-5.532-.382-5.462,2.8q2.24,102.249-.1,204.522a3.835,3.835,0,0,0,.878,5.558,3.781,3.781,0,0,0,3.831.705,1445.831,1445.831,0,0,0,167.617,3.253,3.6,3.6,0,0,0,3.134-4.979Z"/></clipPath></defs><title>curtain</title><g class="c"><rect class="a" x="-121.29" y="168.978" width="368.885" height="72.663"/><g class="d"><path class="a" d="M272.33,11.677H180.36c-10.3,0-10.312,16,0,16h91.97C282.626,27.677,282.643,11.677,272.33,11.677Z"/><path class="a" d="M272.956,49.216h-97.6c-10.295,0-10.312,16,0,16h97.6C283.251,65.216,283.268,49.216,272.956,49.216Z"/><path class="a" d="M271.705,89.257,167.449,87.314c-10.3,0-10.751,15.793-.439,15.793l104.7,2.15C282,105.257,282.017,89.257,271.705,89.257Z"/><path class="a" d="M274.833,110.529,169.2,114.074c-10.3,0-10.312,16.012,0,16.012l105.629-3.557C285.128,126.529,285.145,110.529,274.833,110.529Z"/><path class="a" d="M288.6,146.953c-39.833-.071-79.342-1.882-119.175-1.951-10.3-.019-11.189,16.652-.877,16.67,39.833.07,80.219,1.21,120.052,1.281C298.894,162.97,298.909,146.97,288.6,146.953Z"/><path class="a" d="M289.184,175.227,169.828,187.835c-4.3.455-8,3.352-8,8,0,3.974,3.676,8.457,8,8l119.356-12.608c4.3-.454,8-3.352,8-8C297.184,179.253,293.507,174.77,289.184,175.227Z"/></g><path class="b" d="M188.867-.108c.185-3.559-4.141-4.284-6.081-2.22a3.147,3.147,0,0,0-2.5-1c-29.139.662-58.314,1.325-87.44-.15C64.43-4.92,36.689-8.89,8.25-5.578c-2.081-1.3-5.532-.382-5.462,2.8q2.24,102.249-.1,204.522a3.835,3.835,0,0,0,.878,5.558,3.781,3.781,0,0,0,3.831.705,1445.831,1445.831,0,0,0,167.617,3.253,3.6,3.6,0,0,0,3.134-4.979Z"/><g class="e"><path class="f" d="M212.521,14.424c-35.963-2.985-72.06-4.625-108.087-6.647C86.273,6.758,68.053,5.684,49.856,6.024c-18.382.343-36.68,2.273-54.948,4.2-4.3.454-8,3.352-8,8,0,3.973,3.677,8.457,8,8,18.268-1.931,36.567-3.866,54.948-4.2,18.2-.335,36.416.733,54.578,1.753,36.027,2.022,72.124,3.662,108.087,6.647C222.782,31.275,222.726,15.271,212.521,14.424Z"/><path class="f" d="M218.08,49.272q-112.4-1.224-224.808-.5c-10.292.066-10.315,16.066,0,16q112.4-.729,224.808.5C228.379,65.384,228.386,49.384,218.08,49.272Z"/><path class="f" d="M237.452,109.333a67.912,67.912,0,0,0-7.392-.161,7.442,7.442,0,0,0,4.309-4.98c1.053-3.831-1.3-9.127-5.588-9.841-19.213-3.2-38.431-6.142-57.869-7.592-18.886-1.41-37.83-1.9-56.754-2.539L-2.12,80.267c-10.3-.351-10.285,15.65,0,16l114.308,3.886c18.928.643,37.879,1.112,56.775,2.463,18.33,1.311,36.408,3.987,54.521,6.992-5.6.554-11.166,1.5-16.749,2.324a189.934,189.934,0,0,1-30.767,1.686c-20.27-.309-40.521-1.606-60.794-2-41.045-.793-81.907,1.121-122.414,8.112-4.26.735-6.651,5.968-5.587,9.841,1.238,4.5,5.568,6.325,9.841,5.588,39.719-6.855,79.893-8.344,120.129-7.5,20.26.424,40.511,1.793,60.773,1.983a200.244,200.244,0,0,0,29.265-1.733c10.106-1.392,20.017-3.393,30.271-2.577S247.664,110.147,237.452,109.333Z"/><path class="f" d="M244.591,143.135q-101.562,3.9-203.213,4.415-28.9.142-57.793.007c-10.3-.047-10.309,15.953,0,16q101.636.459,203.247-2.471,28.884-.837,57.759-1.951C254.854,158.741,254.905,142.739,244.591,143.135Z"/><path class="f" d="M279.752,188.99a434.678,434.678,0,0,0-56.237-3.286c-18.751.142-37.447,1.661-56.162,2.661-37.093,1.981-74.265.418-110.914-5.831-20.565-3.507-40.778-9.084-61.6-10.949-4.31-.385-8,3.954-8,8,0,4.649,3.678,7.614,8,8,18.087,1.62,35.7,6.525,53.54,9.712a512.534,512.534,0,0,0,54.889,6.794c37.635,2.592,74.767-1.287,112.348-2.255a434.806,434.806,0,0,1,64.14,3.154c4.3.527,8-4.054,8-8C287.752,192.228,284.06,189.518,279.752,188.99Z"/></g></g></svg>