<svg xmlns="http://www.w3.org/2000/svg" viewBox="0 0 120.056 47.748">
  <title>start</title>
  <path d="M70.409,29.952Q64.574,16.341,59.473,2.43a2.218,2.218,0,0,0-.286-.525l-.008-.011a1.71,1.71,0,0,0-1.859-.686c-.024.007-.045.021-.068.029l-.6,0a1.775,1.775,0,0,0-1.687,1.285,303.962,303.962,0,0,0-4.92,30.033,1.761,1.761,0,0,0,1.75,1.75A1.672,1.672,0,0,0,53.4,33.142a2.246,2.246,0,0,0,.763-.988A34.425,34.425,0,0,0,56.268,23.5a43.067,43.067,0,0,0,7.564-.278q1.747,4.262,3.555,8.5a1.761,1.761,0,0,0,2.394.628A1.8,1.8,0,0,0,70.409,29.952ZM56.675,20.016c.079-.744.157-1.486.239-2.226a52.977,52.977,0,0,1,1.177-6.956c.107-.433.216-.864.324-1.3q1.974,5.183,4.049,10.326A43.028,43.028,0,0,1,56.675,20.016Z" fill="#fff"/>
  <path d="M47.06,1.177q-9.792.006-19.56.786a1.793,1.793,0,0,0-1.75,1.75,1.764,1.764,0,0,0,1.75,1.75c2.281-.183,4.565-.321,6.849-.44.426,9.947-.35,17.2.512,27.119a1.79,1.79,0,0,0,1.75,1.75l2.569,0a1.776,1.776,0,0,0,1.688-2.215c-1.784-9.762-1.548-16.936-2.14-26.84,2.776-.1,5.553-.154,8.332-.156A1.751,1.751,0,0,0,47.06,1.177Z" fill="#fff"/>
  <path d="M117.25,1.177q-9.792.006-19.56.786a1.793,1.793,0,0,0-1.75,1.75,1.764,1.764,0,0,0,1.75,1.75c2.281-.183,4.565-.321,6.85-.44.425,9.947-.351,17.2.512,27.119a1.789,1.789,0,0,0,1.75,1.75l2.569,0a1.776,1.776,0,0,0,1.687-2.215c-1.784-9.762-1.548-16.936-2.14-26.84,2.776-.1,5.553-.154,8.332-.156A1.751,1.751,0,0,0,117.25,1.177Z" fill="#fff"/>
  <path d="M93.438,31.072a70.5,70.5,0,0,0-9.6-10.858,12.158,12.158,0,0,0,3.821-2.384,8.417,8.417,0,0,0,2.511-7.195C89.455,5.034,84,1.583,78.586,2.187a2.423,2.423,0,0,0-.511.12l-.776.084a1.815,1.815,0,0,0-1.75,1.75q-.722,8.393-.667,16.824.03,4.125.252,8.246a14.567,14.567,0,0,0,.4,3.91,2.723,2.723,0,0,0,3.424,1.8,2.582,2.582,0,0,0,.386-.205,1.6,1.6,0,0,0,1.487-1.671q-.058-5.479-.116-10.96a65.931,65.931,0,0,1,9.7,10.749,1.8,1.8,0,0,0,2.394.628A1.765,1.765,0,0,0,93.438,31.072ZM80.665,17.6,80.539,5.687c3,.319,5.832,2.128,6.187,5.414C87.133,14.877,83.809,16.7,80.665,17.6Z" fill="#fff"/>
  <path d="M23.361,20.285a1.686,1.686,0,0,0-.061-.366A9.153,9.153,0,0,0,19.258,14.7a16.4,16.4,0,0,0-1.479-.827,14.916,14.916,0,0,0-2.9-1.455,1.3,1.3,0,0,0-.657-.316l-.444-.077c-.214-.071-.427-.142-.645-.21-1.583-.494-3.867-1.039-4.263-2.835-.51-2.306,1.691-4.4,3.79-4.777a4.783,4.783,0,0,1,5.2,3.357,1.761,1.761,0,0,0,2.346.789A1.8,1.8,0,0,0,21,6,8.137,8.137,0,0,0,12.3.767a1.488,1.488,0,0,0-.26-.019A7.8,7.8,0,0,0,4.586,8.139a6.479,6.479,0,0,0,2.933,5.382,11.809,11.809,0,0,0,4.947,1.809c1.241.523,2.5,1.037,3.7,1.651a9.236,9.236,0,0,1,2.927,3.876,7.648,7.648,0,0,1-4.131,9.769,5.825,5.825,0,0,1-.616.224,1.655,1.655,0,0,0-.694.169c-3.715.682-7.859-2.194-7.914-6.178a1.8,1.8,0,0,0-1.61-1.88,1.767,1.767,0,0,0-1.881,1.611,10.439,10.439,0,0,0,8.646,9.969,9.109,9.109,0,0,0,4.064-.216A8.975,8.975,0,0,0,21.9,29.619,13.508,13.508,0,0,0,23.361,20.285Z" fill="#fff" stroke="#fff" stroke-miterlimit="10" stroke-width="0.5"/>
  <path d="M117.357,38.07q-22.482.672-44.956,1.565-22.387.891-44.765,2-12.625.628-25.247,1.326c-2.24.123-2.255,3.624,0,3.5Q24.845,45.221,47.316,44.2c14.921-.676,29.846-.579,44.773-1.107q12.633-.448,25.268-.825C119.605,42.2,119.614,38,117.357,38.07Z" fill="#fff"/>
</svg>
