<svg xmlns="http://www.w3.org/2000/svg" viewBox="0 0 219.699 24.614"><defs><style>.a{fill:#fff;}</style></defs><title>text</title><path class="a" d="M29.7,12.046a10.985,10.985,0,0,0-1.449-5.479A5.131,5.131,0,0,0,23.727,4.09a.527.527,0,0,0-.071.011,5.275,5.275,0,0,0-4.277,1.432,8.131,8.131,0,0,0-2.231,4.3c-.7,3.213-.559,6.857,1.531,9.543a6.2,6.2,0,0,0,7.892,1.9,5.76,5.76,0,0,0,2.568-3.758A18.172,18.172,0,0,0,29.7,12.046Zm-3.31,5.034c-.392,1.284-.931,2.566-2.366,2.857-2.786.564-4.356-2.423-4.6-4.749a20.421,20.421,0,0,1,.724-5.972c.473-1.591,1.6-3.33,3.464-3.258a.718.718,0,0,0,.081-.006,1.173,1.173,0,0,0,.571.05c-.1.015.057.04.062.042a5.1,5.1,0,0,1,.449.241c.275.155.548.313.809.49a2.943,2.943,0,0,1,1.05,1.24,6.212,6.212,0,0,1,.421,3.611,1.111,1.111,0,0,0-.011.32c0,.016,0,.03,0,.046A17.1,17.1,0,0,1,26.393,17.08Z"/><path class="a" d="M14.517,19.478q.176-7.524.5-15.044a.907.907,0,0,0-.9-.9l-.751.04a.93.93,0,0,0-.828,1.214q-.117,6.025-.481,12.041-2.98-6.224-6.219-12.32a.776.776,0,0,0-.881-.425.9.9,0,0,0-.287.04l-.388.121a.919.919,0,0,0-.66.868L4,20.078a.692.692,0,0,0-.039.241l.033.239a.9.9,0,0,0,.231.4L4.4,21.1a.907.907,0,0,0,.454.123h.769c.011,0,.021,0,.032,0a.8.8,0,0,0,.875-.865Q6.221,14.568,6.04,8.78q3.006,5.813,5.779,11.741a.975.975,0,0,0,.682.806l.022.017a.885.885,0,0,0,.454.123l.363-.026a1.237,1.237,0,0,0,.565-.144.076.076,0,0,0,.019-.012l.182-.141a1.037,1.037,0,0,0,.158-.2,3.113,3.113,0,0,0,.114-.268c.031-.115.048-.235.071-.351l.073-.367a.671.671,0,0,0,.016-.358A.707.707,0,0,0,14.517,19.478Z"/><path class="a" d="M40.794,2.9q-5.035,0-10.06.4a.923.923,0,0,0-.9.9.907.907,0,0,0,.9.9c1.174-.094,2.348-.165,3.523-.226q.328,7.674.992,15.327a.919.919,0,0,0,.9.9l1.321,0a.913.913,0,0,0,.868-1.139A126.59,126.59,0,0,1,36.509,4.783c1.428-.049,2.856-.079,4.285-.08A.9.9,0,0,0,40.794,2.9Z"/><path class="a" d="M61.383,5.384a1.217,1.217,0,0,0-1.62-1.1,1.378,1.378,0,0,0-.914.379,2.735,2.735,0,0,0-.629,1.779c-.2,1.534-.279,3.079-.366,4.622-.084,1.491-.162,2.989-.393,4.466a19.8,19.8,0,0,1-.438,2.1q-.156.585-.357,1.155c-.02.058-.087.247-.146.421a2.069,2.069,0,0,1-1.446.362c-2.5-.261-2.8-3.637-2.874-5.535-.121-3.046-.118-6.1-.034-9.147A1.156,1.156,0,0,0,50.554,3.8a2.834,2.834,0,0,0-.648.09,1.034,1.034,0,0,0-.734.964,55.249,55.249,0,0,0-.326,5.852,45.445,45.445,0,0,0,.107,5.646c.338,2.894,2.413,5.511,5.362,5.469a4.352,4.352,0,0,0,3.364-.584c2.136-1.386,2.787-3.882,3.138-6.253A54.116,54.116,0,0,0,61.383,5.384Z"/><path class="a" d="M75.26,4.395a1.113,1.113,0,0,0-.747-1.072.808.808,0,0,0-.547-.181l-.742.067a1.036,1.036,0,0,0-1,1,100.813,100.813,0,0,0-.405,10.613,72.629,72.629,0,0,1-4.895-10.2,1.214,1.214,0,0,0-2.168-.282.991.991,0,0,0-.22.523q-.8,7.839-1.263,15.7a1.025,1.025,0,0,0,1,1l.659.08a.737.737,0,0,0,.42-.08,1.16,1.16,0,0,0,.85-1.093l.507-10.281A75.421,75.421,0,0,0,72.6,20.64a1.211,1.211,0,0,0,2.236-.606Q75.391,12.228,75.26,4.395Z"/><path class="a" d="M85,6.181c-1.641-1.992-4.111-3.609-6.782-3.006a1.107,1.107,0,0,0-.605.346,1.04,1.04,0,0,0-.343.877l.8,15.959a1.193,1.193,0,0,0,.169.566,1.128,1.128,0,0,0,1.143,1.029c4.816.061,8.552-4.456,8.314-9.118A11.43,11.43,0,0,0,85,6.181ZM81,19.286,80.223,6.053c0-.17,0-.34-.011-.51a6.835,6.835,0,0,1,3.221,2.5,8.749,8.749,0,0,1,1.872,5.047A6.4,6.4,0,0,1,81,19.286Z"/><path class="a" d="M96.207,18.409H92.094a35.237,35.237,0,0,1-.476-5.153,8.32,8.32,0,0,1,1.33.032,8.023,8.023,0,0,1,.841.169,1.242,1.242,0,0,0,.924-.121,1.2,1.2,0,0,0-.286-2.193,9.055,9.055,0,0,0-2.8-.292c.039-1.759.146-3.517.27-5.268.249.006.5,0,.747.02q.3.021.6.053l.328.038.153.023c.433.066.861.15,1.287.248a1.2,1.2,0,0,0,.638-2.315,18.811,18.811,0,0,0-5.627-.435,1.223,1.223,0,0,0-1.2,1.2,1.165,1.165,0,0,0,.046.272q-.345,7.519.056,15.047a1.252,1.252,0,0,0,1.719,1.075h5.561a1.2,1.2,0,1,0,0-2.4Z"/><path class="a" d="M108.777,19.248a28.992,28.992,0,0,0-4.545-5.027c.016-.012.035-.017.05-.03a9.891,9.891,0,0,0,2.043-2.413,6.884,6.884,0,0,0,.695-1.46,5.425,5.425,0,0,0,.173-1.759,4.625,4.625,0,0,0-.859-2.982A6.864,6.864,0,0,0,103.487,3.9a.762.762,0,0,0-.326-.043,13.8,13.8,0,0,0-3-.423c-1.326-.3-2.242.93-2.19,2.177.065,1.566.5,3.178.719,4.732.464,3.282.8,6.582,1.042,9.888.041.569.619,1.236,1.265.965l.192-.08a1.069,1.069,0,0,0,1.4-1.116q-.18-2.2-.4-4.393A25.543,25.543,0,0,1,106.7,20.46C107.59,21.71,109.672,20.512,108.777,19.248Zm-6.928-6.787q-.378-3.294-.853-6.576c1.656.154,3.429.626,3.6,2.559A4.019,4.019,0,0,1,101.849,12.461Z"/><path class="a" d="M123.545,3.379l-8.737.676a1.229,1.229,0,0,0-1.2,1.2,1.208,1.208,0,0,0,1.2,1.2l2.8-.216q.178,6.491.472,12.979a1.031,1.031,0,0,0,1.474.866,1.089,1.089,0,0,0,.981-1.124l-.056-12.944,3.062-.236a1.231,1.231,0,0,0,1.2-1.2A1.209,1.209,0,0,0,123.545,3.379Z"/><path class="a" d="M136.475,4.086a1.064,1.064,0,0,0-.351-.872,1.007,1.007,0,0,0-1.053-.443c-1.183.221-1.436,1.449-1.55,2.457-.171,1.53-.268,3.07-.311,4.608-.008.271,0,.541-.007.812-1.412.082-2.824.153-4.237.185L128.9,4.248a1.2,1.2,0,0,0-1.708-1.056,1.014,1.014,0,0,0-.939.988q-.2,7.539-.181,15.082a1.015,1.015,0,0,0,1.266.964l.335-.059a1.131,1.131,0,0,0,1.387-1.127l-.063-5.808c1.41-.032,2.819-.1,4.226-.184.053,1.958.192,3.912.433,5.858a1.034,1.034,0,0,0,1,1c.02,0,.04,0,.059-.006a1.165,1.165,0,0,0,1.752-1.021Q136.225,11.484,136.475,4.086Z"/><path class="a" d="M215.978,4.892a1.1,1.1,0,0,0-1.215-1.153.858.858,0,0,0-.637.17c-.031.022-.052.05-.082.073a1.041,1.041,0,0,0-.157.14c-.737.73-.629,1.825-.67,2.837q-.077,1.886-.121,3.771c0,.236-.006.472-.01.708q-2.181.133-4.365.191c-.029-2.262-.039-4.53-.158-6.786a1.022,1.022,0,0,0-1-1,.937.937,0,0,0-.307.065A1.119,1.119,0,0,0,206,5.055q.079,7.4.16,14.792a1.106,1.106,0,0,0,.935,1.114,1.044,1.044,0,0,0,.4.1,1.971,1.971,0,0,0,1.093-.149,1.215,1.215,0,0,0,.5-1.318c-.1-.686-.192-1.37-.25-2.062a30.261,30.261,0,0,1-.073-3.5q2.147-.056,4.291-.188c-.015,1.568-.019,3.136,0,4.7v.007c0,.012-.005.024-.005.037a3.156,3.156,0,0,0-.012.6,4.716,4.716,0,0,0,.133.835,1.105,1.105,0,0,0,.459.6l.239.1a.99.99,0,0,0,.416.016,1.155,1.155,0,0,0,1.684-1.051Q215.727,12.292,215.978,4.892Z"/><path class="a" d="M147.043,17.383c-1.48.122-2.975.283-4.465.308q-.124-2.485-.166-4.974c.575,0,1.151-.016,1.725-.066a1.3,1.3,0,0,0,.849-.352,1.2,1.2,0,0,0,0-1.7,1.177,1.177,0,0,0-.849-.352c-.581.051-1.163.066-1.746.067,0-1.578.016-3.156.063-4.734.927-.021,1.855-.058,2.781-.132a1.2,1.2,0,0,0,0-2.4c-1.353.109-2.709.158-4.066.159a1.213,1.213,0,0,0-1.487,1.134,130.147,130.147,0,0,0,.24,14.487,1.266,1.266,0,0,0,.146.515,1.224,1.224,0,0,0,.116.171l.011.016a1.235,1.235,0,0,0,.969.547,41.436,41.436,0,0,0,5.879-.3,1.2,1.2,0,1,0,0-2.4Z"/><path class="a" d="M163.478,15.242c.008,1.727-.777,3.579-2.819,2.98a3.115,3.115,0,0,1-1.5-.991c-.019-.022-.026-.05-.047-.07-.049-.044-.091-.094-.136-.142-.073-.1-.138-.2-.2-.309-.02-.038-.04-.075-.058-.113s-.045-.114-.053-.14a5.015,5.015,0,0,1-.154-.59c-.024-.115-.041-.23-.061-.345-.007-.048-.01-.063-.011-.071l-.011-.086a19.066,19.066,0,0,1-.112-3.16.712.712,0,0,0-.017-.09,22.978,22.978,0,0,1,.381-4.021,3.288,3.288,0,0,1,1.405-2.365,2.116,2.116,0,0,1,2.474,1.814,1.235,1.235,0,0,0,1.2,1.2,1.209,1.209,0,0,0,1.2-1.2A4.6,4.6,0,0,0,160.1,3.281c-2.905.275-4.229,2.747-4.6,5.379-.6,4.325-.052,12.014,5.887,12.082,3.046.035,4.5-2.8,4.486-5.5A1.2,1.2,0,0,0,163.478,15.242Z"/><path class="a" d="M201.742,15.357c.007,1.727-.778,3.579-2.82,2.98a3.667,3.667,0,0,1-2.333-2.436,20.6,20.6,0,0,1-.431-3.911c-.108-2.107.118-4.388,1.654-5.978.007-.008.008-.018.016-.025a2.146,2.146,0,0,1,3,1.671,1.236,1.236,0,0,0,1.2,1.2,1.208,1.208,0,0,0,1.2-1.2A4.6,4.6,0,0,0,198.365,3.4c-2.905.275-4.229,2.747-4.6,5.379-.6,4.325-.053,12.014,5.887,12.082,3.046.035,4.5-2.8,4.486-5.5A1.2,1.2,0,0,0,201.742,15.357Z"/><path class="a" d="M178.4,8.81a5.91,5.91,0,0,0-2.434-4.182,4.216,4.216,0,0,0-3.51-.509,1.149,1.149,0,0,0-1.287-.109c-2.677,1.4-3.232,4.681-3.326,7.418-.1,2.82-.041,6.2,1.907,8.451a4.177,4.177,0,0,0,4.156,1.449,5.644,5.644,0,0,0,3.263-3.12A15.95,15.95,0,0,0,178.4,8.81Zm-2.97,7.41a5.154,5.154,0,0,1-1.746,2.6,1.759,1.759,0,0,1-2.331-.752,5.263,5.263,0,0,1-.875-2.039,18.406,18.406,0,0,1,.328-5.151c.256-1.491.676-3.22,1.968-4.173a1.36,1.36,0,0,0,.132-.131,1.706,1.706,0,0,1,1.939.188,4.033,4.033,0,0,1,1.241,2.692A14.32,14.32,0,0,1,175.429,16.22Z"/><path class="a" d="M191.738,5.342a1.215,1.215,0,0,0-1.609-1.1.765.765,0,0,0-.218-.041,1.018,1.018,0,0,0-1,1q-.006,1.538.049,3.075a.588.588,0,0,0,.016.07,38.712,38.712,0,0,1-.51,5.625c-.156.927-.331,1.857-.575,2.766a11.248,11.248,0,0,1-1.04,2.446,2.072,2.072,0,0,1-1.423.348,2.392,2.392,0,0,1-1.441-.663.767.767,0,0,0-.389-.462,3.685,3.685,0,0,1-.266-.453c-.028-.095-.061-.19-.082-.274q-.127-.516-.256-1.031a12.476,12.476,0,0,1-.407-2.163,38.354,38.354,0,0,1,.081-4.433c.075-1.475.352-2.9.5-4.361.119-1.143-.762-2.272-1.873-2a1.164,1.164,0,0,0-1.179,1.154q-.117,4.279.014,8.559c.077,2.412.253,4.956,1.937,6.844a4.6,4.6,0,0,0,5.962.948c2.136-1.386,2.787-3.882,3.138-6.252A54.133,54.133,0,0,0,191.738,5.342Z"/></svg>