<svg xmlns="http://www.w3.org/2000/svg" viewBox="0 0 243.134 236.811"><defs><style>.a{fill:#7f3f98;}.b{fill:#d3b433;}.c{fill:#eb5833;}.d{fill:#1b75bc;}.e{fill:#00a14b;}.f{fill:#f9d640;}.g{fill:#9d8730;}</style></defs><title>treebg</title><path class="a" d="M241.3,103.1a92.912,92.912,0,0,0-28.747-5.278c-10.134-.23-20.179,1.333-30.247,2.211-2.888.252-5.78.437-8.675.513.25-.127.495-.236.627-.313q.913-.531,1.833-1.046,1.842-1.031,3.715-2a80.336,80.336,0,0,1,7.676-3.643,71.9,71.9,0,0,1,8.4-2.359l8.3-2.128a70.585,70.585,0,0,1,9.35-.708,1.5,1.5,0,0,0,0-3,72.414,72.414,0,0,0-8.86.618,1.546,1.546,0,0,0-.646.033l-.351.09c-13.879,1.976-27.041,7.68-39.327,14.4-6.922,3.786-13.661,7.9-20.368,12.056q-.14-16.746-.7-33.49c-.64-18.188-1.6-36.363-2.625-54.534-.257-4.563-.445-9.137-.782-13.695-.167-2.262-.978-4.284-3.28-5.086-1.973-.687-4.395-.362-6.45-.366q-10.865-.021-21.73-.018c-2.828-.5-5.652-1.029-8.485-1.506.181-.1.363-.2.544-.3.067-.037.007-.141-.061-.1-.224.124-.449.246-.673.369l-.16-.028q-1.39-.231-2.785-.444c.017-.241.036-.483.052-.725a2.4,2.4,0,0,0-4.8,0c0,.03-.005.06-.007.09-.616-.07-1.232-.137-1.85-.194-.393-.037-.785-.072-1.179-.1-.076-.006-.076.114,0,.12,1.009.082,2.015.183,3.021.3q-.18,2.643-.47,5.27l-.229.115c-.069.034-.008.138.061.1l.153-.077a174.824,174.824,0,0,1-4.324,23.245c-1.827,5.879-3.76,11.729-5.615,17.594q-5.428,17.156-9.814,34.614c-1.349,4.912-2.628,9.842-3.876,14.781-4.089,16.176-7.894,32.446-13.044,48.329C49.8,162.462,42.3,177.353,39.954,193.789c-2.036,14.28-1.495,28.939-4.3,43.105h113.09c.731-16.377-2.242-32.664-3.572-48.957-.683-8.379-.993-16.774-1.132-25.174.1-1.066.205-2.131.348-3.191.291-2.162.881-4.276,1.162-6.435a98.894,98.894,0,0,1,6.262-15.9c3.142-6.3,6.837-12.777,11.821-17.81a21.952,21.952,0,0,1,7.377-5.076,174.8,174.8,0,0,1,39.279-7.894,215.862,215.862,0,0,1,30.612-.409C242.678,106.144,242.821,103.635,241.3,103.1ZM81.778,50.71c-2.409,7.849-4.943,15.659-7.287,23.528q-.609,2.044-1.194,4.1,3.138-11.973,6.742-23.815c2.107-6.9,4.394-13.744,6.567-20.625C85.137,39.542,83.486,45.144,81.778,50.71ZM96.885,5.358h-.249q.081-.946.149-1.9.907.138,1.812.284c.325.052.649.106.974.16q-1.332.73-2.671,1.445Zm5.913-.006-5.662.006c.451-.24.9-.48,1.352-.723.426-.23.849-.464,1.274-.7,2.661.446,5.315.937,7.971,1.414Q105.265,5.353,102.8,5.352Z"/><path class="b" d="M45.075,236.894a101.02,101.02,0,0,1,8.762-34.828c2.97-6.538,6.881-12.56,10.127-18.952a96.475,96.475,0,0,0,7.294-19.19,97.049,97.049,0,0,0,3.153-22.807.9.9,0,0,0-1.8,0,94.918,94.918,0,0,1-9.474,39.628c-3.135,6.447-7.1,12.452-10.167,18.933a102.538,102.538,0,0,0-9.691,37.216Z"/><path class="b" d="M119.953,122.212c-.974-7.243-2-14.452-2.431-21.754-.5-8.365-.51-16.748-.521-25.124a.9.9,0,0,0-1.8,0c.01,7.429.019,14.862.37,22.285.342,7.261,1.172,14.445,2.175,21.641.987,7.092,1.965,14.241,1.712,21.42a48.816,48.816,0,0,1-1.4,10.286A61.127,61.127,0,0,1,114.5,160.8c-3.343,7.49-7.011,14.845-10.535,22.251-.5,1.041,1.056,1.955,1.554.909,3.206-6.737,6.465-13.45,9.607-20.217a81.861,81.861,0,0,0,3.929-9.73,48.141,48.141,0,0,0,2.025-10.406C121.7,136.465,120.9,129.291,119.953,122.212Z"/><path class="c" d="M108.713,234.739c-3.453-7.473-6.69-15.052-9.45-22.811A159.184,159.184,0,0,1,92.7,188.19,111.776,111.776,0,0,1,90.7,164.127a86.7,86.7,0,0,1,3.92-23.778c2.435-7.639,6.393-14.733,8.418-22.509q.371-1.422.643-2.867c.213-1.132-1.521-1.618-1.736-.479-1.507,7.989-5.456,15.178-8.178,22.769a86.053,86.053,0,0,0-4.735,23.889,110.611,110.611,0,0,0,1.385,24.456,151.15,151.15,0,0,0,6.15,24.044c2.67,7.874,5.854,15.567,9.282,23.138q.648,1.433,1.308,2.858C107.644,236.7,109.2,235.785,108.713,234.739Z"/><path class="d" d="M109.8,148.115c-.1-1.145-1.9-1.156-1.8,0a13.672,13.672,0,0,1-.61,5.457,8.738,8.738,0,0,1-1.076,2.328c-.321.457-.9,1.116-1.538,1.009-1.073-.181-.916-2.02-.823-2.769.242-1.956.692-3.9,1.041-5.845q.619-3.454,1.241-6.909c.2-1.132-1.531-1.618-1.736-.478q-.653,3.63-1.3,7.26-.336,1.873-.673,3.747a19.557,19.557,0,0,0-.418,2.907c-.041,1.557.473,3.4,2.189,3.814,2.032.492,3.527-1.445,4.245-3.073A15.208,15.208,0,0,0,109.8,148.115Z"/><path class="c" d="M132.418,100.012c-.075-1.15-1.876-1.159-1.8,0a232.569,232.569,0,0,1-.056,31.447,231.059,231.059,0,0,1-4.322,31.14c-1.2,5.75-2.568,11.59-2.046,17.505.1,1.145,1.9,1.156,1.8,0-.464-5.253.591-10.43,1.669-15.543,1.083-5.134,2.039-10.29,2.8-15.483a234.31,234.31,0,0,0,2.453-31.36Q133,108.859,132.418,100.012Z"/><path class="e" d="M137.517,11.184a.9.9,0,0,0-1.107-.628.924.924,0,0,0-.629,1.107,70.5,70.5,0,0,1,.336,16.269A75.132,75.132,0,0,1,132.768,43.7c-1.64,5.145-3.591,10.194-4.959,15.423a76.2,76.2,0,0,0-2.258,16.116c-.256,6.157.021,12.319.3,18.47.053,1.153,1.853,1.159,1.8,0-.5-10.927-1.012-22.063,1.562-32.789,1.271-5.294,3.212-10.39,4.906-15.555a80.973,80.973,0,0,0,3.628-15.847A72.246,72.246,0,0,0,137.517,11.184Z"/><path class="b" d="M137.435,67.255v13.6a.9.9,0,0,0,1.8,0v-13.6A.9.9,0,0,0,137.435,67.255Z"/><path class="d" d="M140.737,130.911l-.047-26.568-.006-3.272a.9.9,0,0,0-1.8,0q.024,13.284.047,26.568c.008,4.357.092,8.722,0,13.078a33.932,33.932,0,0,1-.6,6.225,32.184,32.184,0,0,1-1.936,5.786,53.711,53.711,0,0,0-2.163,5.661,29.005,29.005,0,0,0-1.031,5.987,63.735,63.735,0,0,0,.689,12.531,108.766,108.766,0,0,1,1.107,12.663A116.6,116.6,0,0,1,134.2,202.7c-.922,8.77-1.948,17.529-2.926,26.292l-.361,3.238a.906.906,0,0,0,.9.9.921.921,0,0,0,.9-.9q1.467-13.145,2.934-26.289c.486-4.36.957-8.728,1.1-13.116A82.233,82.233,0,0,0,136.072,180a111.8,111.8,0,0,1-1.17-12.465,32.168,32.168,0,0,1,.47-6.174,30.008,30.008,0,0,1,1.79-5.856c.745-1.831,1.57-3.634,2.2-5.512a26.728,26.728,0,0,0,1.21-6.15C140.943,139.561,140.745,135.209,140.737,130.911Z"/><path class="c" d="M102.489,44.465c-.042,7.184.015,14.377-.164,21.56a77.892,77.892,0,0,1-.871,10.69,61.941,61.941,0,0,1-2.375,9.436c-4.188,12.622-11.5,23.957-15.4,36.692-2.192,7.154-3.261,14.694-2,22.126.193,1.14,1.927.657,1.735-.478-2.254-13.317,3.367-26.356,8.923-38.129,2.81-5.955,5.711-11.889,7.921-18.1a66.4,66.4,0,0,0,2.621-9.33A69.267,69.267,0,0,0,104.037,68.6c.18-3.992.157-7.992.181-11.988l.071-12.142A.9.9,0,0,0,102.489,44.465Z"/><path class="e" d="M117.055.048h-1.8l.3,18.758a146.559,146.559,0,0,1-.632,20.679,60.7,60.7,0,0,1-2.154,10.057c-1,3.29-2.2,6.514-3.227,9.793a89.528,89.528,0,0,0-3.661,20.014c-.595,7.711-.479,15.452-.357,23.178a.9.9,0,0,0,1.8,0c-.217-13.62-.438-27.524,3.358-40.74.949-3.3,2.14-6.533,3.2-9.8a65.969,65.969,0,0,0,2.482-9.995A119.633,119.633,0,0,0,117.4,21.344Q117.247,10.7,117.055.048Z"/><path class="c" d="M125.467,49.172a147.966,147.966,0,0,0,1.857-21.629c.157-8.2-.161-16.4-.482-24.587-.045-1.155-1.846-1.16-1.8,0,.57,14.536,1.167,29.216-.982,43.66-1.073,7.208-3.1,14.28-3.384,21.593a95.951,95.951,0,0,0,.34,10.935c.284,3.742.6,7.481.905,11.22l2.037,25.114c.093,1.147,1.894,1.157,1.8,0q-.912-11.241-1.823-22.483-.452-5.561-.9-11.121c-.3-3.677-.594-7.36-.6-11.051a61.934,61.934,0,0,1,1-10.939C124.062,56.3,124.866,52.757,125.467,49.172Z"/><path class="e" d="M99.336,190.682a43.641,43.641,0,0,0,3.2,8.791c1.369,2.83,2.95,5.55,4.414,8.33a77.13,77.13,0,0,1,3.759,8.241,78.286,78.286,0,0,1,4.507,17.574c.147,1.089.262,2.181.362,3.276h1.8a78.918,78.918,0,0,0-7.511-27.3c-1.342-2.787-2.883-5.469-4.334-8.2a50.369,50.369,0,0,1-3.717-8.479,45.434,45.434,0,0,1-1.816-9.077c-.7-6.984-.153-14.019.412-20.991.094-1.155-1.707-1.149-1.8,0a129.51,129.51,0,0,0-.59,18.825A53.171,53.171,0,0,0,99.336,190.682Z"/><path class="d" d="M126.635,229.628a36.112,36.112,0,0,1,.847,7.266h1.778a38.454,38.454,0,0,0-.454-5.451,43.612,43.612,0,0,0-3.37-10.808c-1.52-3.453-3.225-6.825-4.421-10.412a48.38,48.38,0,0,1-1.781-23.57c.2-1.132-1.537-1.619-1.736-.478a50.576,50.576,0,0,0,1.075,22.219C120.618,215.722,124.978,222.178,126.635,229.628Z"/><path class="b" d="M79.889,215.71A93.859,93.859,0,0,0,84.843,229.1a69.726,69.726,0,0,1,2.961,7.79H89.67a55.8,55.8,0,0,0-2.226-6.24,135.544,135.544,0,0,1-5.234-13.328c-2.779-9.344-3.427-19.152-3.335-28.854.052-5.549.347-11.091.653-16.631.064-1.157-1.736-1.153-1.8,0-.542,9.809-1.06,19.667-.227,29.476A84.966,84.966,0,0,0,79.889,215.71Z"/><path class="d" d="M103.219,7.094c-.293,4.984-.637,10.668-3.9,14.73-1.8,2.245-4.428,3.538-6.52,5.465a15.63,15.63,0,0,0-3.981,6.19c-1.8,4.912-1.724,10.3-2.08,15.45-.459,6.639-1.361,13.238-2.385,19.811-.5,3.23-1.011,6.461-1.567,9.682A39.2,39.2,0,0,1,80.4,87.317c-2.34,5.431-6.222,10.028-8.56,15.466-2.38,5.536-3.441,11.488-4.323,17.416-.907,6.093-1.836,12.162-3.183,18.177a183.383,183.383,0,0,1-11.714,35.212q-.939,2.087-1.931,4.15c-.5,1.039,1.053,1.953,1.554.908a186.259,186.259,0,0,0,12.694-35.031c1.526-6.057,2.728-12.187,3.646-18.364.887-5.965,1.615-12,3.43-17.773a40.861,40.861,0,0,1,3.631-8.224c1.474-2.552,3.127-5,4.571-7.566a33.9,33.9,0,0,0,3.408-8.422c.769-3.087,1.208-6.253,1.715-9.39,1.054-6.506,2.063-13.024,2.73-19.582.315-3.092.515-6.189.694-9.291a52.418,52.418,0,0,1,.883-7.855,17.541,17.541,0,0,1,2.834-6.834c1.691-2.3,4.233-3.639,6.372-5.458,4.054-3.449,5.34-8.72,5.864-13.8.136-1.318.222-2.64.3-3.962C105.087,5.937,103.286,5.94,103.219,7.094Z"/><path class="e" d="M64.643,236.894h1.811a104.744,104.744,0,0,1-.223-13.929,83.657,83.657,0,0,0-.2-9.5c-.1-1.144-1.906-1.155-1.8,0C64.935,221.194,63.791,229.175,64.643,236.894Z"/><path class="f" d="M180.425,3.868a16.7,16.7,0,0,0-5.411-2.96A3.466,3.466,0,0,1,173.8.048H33.034C28.2,3.109,23.243,6.372,22.87,6.843a7.021,7.021,0,0,0-.932.677A61.926,61.926,0,0,0,7.965,24.81,65.126,65.126,0,0,0,3.349,35.461,33.71,33.71,0,0,0,1.262,48.177,20.325,20.325,0,0,0,5.017,58.983a24.219,24.219,0,0,0,8.271,7.173,27.2,27.2,0,0,0,21.274,1.65A37.565,37.565,0,0,0,46.9,60.644,41.364,41.364,0,0,0,49.209,66.1,28.871,28.871,0,0,0,60.542,78.3,23.606,23.606,0,0,0,79.679,79.83a33.75,33.75,0,0,0,9.749-5.5A39.972,39.972,0,0,0,96.5,66.774a67.835,67.835,0,0,0,5.594-9.035c.86-1.617,1.688-3.251,2.514-4.885.581-1.146,1.122-2.336,1.8-3.432a50,50,0,0,1,6.4,2.285c2.592,1,5.171,2.032,7.78,2.988A62.257,62.257,0,0,0,137.1,58.6c10.714.856,22.4-3.189,27.5-13.267a23.229,23.229,0,0,0,2.5-8.819,15.366,15.366,0,0,0,.016-2.155,30.5,30.5,0,0,0,11.86-5.942,18.178,18.178,0,0,0,5.923-16.832A13.019,13.019,0,0,0,180.425,3.868Z"/><path class="f" d="M187.284,76.482a.558.558,0,0,0-.581-.275.644.644,0,0,0-.263,0,40.384,40.384,0,0,0-7.664,2.272c-.417.17-.667.857-.143,1.1a17.915,17.915,0,0,0,6.859,1.64c.575.019,1.225.108,1.649-.361a3.135,3.135,0,0,0,.632-1.365A4.047,4.047,0,0,0,187.284,76.482Z"/><path class="g" d="M217.111,71.115a10.872,10.872,0,0,0-5.251.924c-.026-1.415-.36-2.916-1.7-3.608a.612.612,0,0,0-.727.094,41.519,41.519,0,0,1-4.85,4.966,12.773,12.773,0,0,1-2.7,2,2.564,2.564,0,0,1-2.857-.515,16.009,16.009,0,0,0-5.875-2.846c-1.87-.435-4.354-.807-5.994.449-1.717,1.315-1.451,4.261-.79,6.246a10.166,10.166,0,0,0,3.97,5.265,14.606,14.606,0,0,0,7.375,2.7,14.159,14.159,0,0,0,7.7-1.482,18.338,18.338,0,0,0,6.332-5.846c.921-1.3,1.671-2.692,2.466-4.07a6.136,6.136,0,0,1,3.051-3.093A.6.6,0,0,0,217.111,71.115Z"/><path class="b" d="M180.536,104.858a39.212,39.212,0,0,0-21.155,8.356,41.768,41.768,0,0,0-7.993,8.281,48.876,48.876,0,0,0-5.812,11.221c-.47,1.2,1.463,1.718,1.928.532A47.179,47.179,0,0,1,152.9,122.8a39.662,39.662,0,0,1,7.607-7.947,36.991,36.991,0,0,1,20.031-8C181.811,106.763,181.822,104.762,180.536,104.858Z"/><path class="c" d="M167.88,101.5a70.6,70.6,0,0,0-7.993,5.341,1.035,1.035,0,0,0-.358,1.369,1.007,1.007,0,0,0,1.368.358,70.6,70.6,0,0,1,7.993-5.341A1,1,0,0,0,167.88,101.5Z"/></svg>