<svg xmlns="http://www.w3.org/2000/svg" viewBox="0 0 101.43 21.522"><defs><style>.a{fill:#9d8730;}</style></defs><title>words1</title><path class="a" d="M10.634,13.96A5.111,5.111,0,0,0,9.49,11.888a2.762,2.762,0,0,0-.471-.536c-.031-.035-.062-.072-.094-.105a.805.805,0,0,0-.234-.16A5.136,5.136,0,0,0,9.856,9.55a4.1,4.1,0,0,0,.237-3.684A5.111,5.111,0,0,0,7.551,3.617c-.116-.054-.234-.1-.352-.153a8.566,8.566,0,0,0-2.1-.752c-.347-.1-.7-.184-1.051-.254a1.168,1.168,0,0,0-.468.012l-.205-.021a.919.919,0,0,0-.357.042l-.381,0a1.006,1.006,0,0,0-1,1c.534,5.113.089,10.258.376,15.382a1.018,1.018,0,0,0,1,1l.743-.02a.914.914,0,0,0,.469.1c.149-.009.294-.044.442-.063A6.18,6.18,0,0,0,7.608,19.3,7.788,7.788,0,0,0,9.864,17.07,3.739,3.739,0,0,0,10.634,13.96ZM7.6,12.761q.162.177.318.361a2.8,2.8,0,0,1-.056,2.022,4.282,4.282,0,0,1-3.007,2.717c-.1-1.672-.169-3.345-.241-5.018a.958.958,0,0,0,.253-.016C5.659,12.612,6.845,12.214,7.6,12.761ZM6.247,5.211c.109.046.221.1.333.153A2.377,2.377,0,0,1,7.734,7.232c.144,1.916-1.576,3.117-3.212,3.607-.078-2.082-.128-4.163-.169-6.246A12.776,12.776,0,0,1,6.247,5.211Z"/><path class="a" d="M22.626,18.571c-.85-2.65-1.673-5.312-2.557-7.951a55.923,55.923,0,0,0-2.936-6.928.96.96,0,0,0-.45-.724.783.783,0,0,0-.5-.163c-.01,0-.021,0-.032,0l-.009,0c-1.463-.17-1.783,1.439-2.031,2.509q-.525,2.274-1.052,4.549l-2.07,8.952a1.013,1.013,0,0,0,.7,1.231,2.1,2.1,0,0,0,.757.013.9.9,0,0,0,1.183-.673L14.9,13.768H18.99c.572,1.778,1.137,3.557,1.707,5.335C21.088,20.323,23.02,19.8,22.626,18.571Zm-7.266-6.8q.549-2.412,1.1-4.824a46.707,46.707,0,0,1,1.769,4.473c.038.116.075.234.113.351Z"/><path class="a" d="M64.81,18.571c-.849-2.65-1.672-5.312-2.556-7.951a55.929,55.929,0,0,0-2.937-6.928.956.956,0,0,0-.449-.724.783.783,0,0,0-.5-.163c-.011,0-.022,0-.032,0l-.01,0c-1.463-.17-1.783,1.439-2.03,2.509q-.526,2.274-1.052,4.549-1.037,4.476-2.071,8.952a1.012,1.012,0,0,0,.7,1.231,2.1,2.1,0,0,0,.757.013.9.9,0,0,0,1.183-.673q.64-2.808,1.28-5.616h4.086q.858,2.667,1.707,5.335C63.273,20.323,65.2,19.8,64.81,18.571Zm-7.265-6.8q.549-2.412,1.1-4.824a46.188,46.188,0,0,1,1.769,4.473c.039.116.075.234.114.351Z"/><path class="a" d="M30.642,14.631c.007,1.728-.778,3.58-2.82,2.981a3.673,3.673,0,0,1-2.333-2.437,20.6,20.6,0,0,1-.431-3.911c-.108-2.107.119-4.387,1.654-5.978.008-.008.009-.017.016-.025a2.146,2.146,0,0,1,3,1.671,1.237,1.237,0,0,0,1.2,1.2,1.207,1.207,0,0,0,1.2-1.2A4.6,4.6,0,0,0,27.265,2.67c-2.9.276-4.229,2.748-4.6,5.38-.6,4.325-.052,12.013,5.887,12.081,3.046.035,4.5-2.8,4.486-5.5A1.2,1.2,0,0,0,30.642,14.631Z"/><path class="a" d="M43.3,3.2a1.01,1.01,0,0,0-1.415,0l-4.59,5.3.051-4.6a.909.909,0,0,0-.877-.947l-.018,0a1.1,1.1,0,0,0-.281.015.982.982,0,0,0-.142.008l-.352.091a1.026,1.026,0,0,0-.734.964q-.5,7.617-.259,15.254a1.014,1.014,0,0,0,1.266.965l.547-.134a.9.9,0,0,0,.68-1.121q.032-2.827.064-5.654c.042.062.085.124.126.186l1.3,1.978L41.227,19.4a1.022,1.022,0,0,0,1.368.359,1.01,1.01,0,0,0,.359-1.368l-2.563-3.893-1.26-1.914c-.392-.594-.83-1.183-1.161-1.815L43.3,4.614A1.026,1.026,0,0,0,43.3,3.2Z"/><path class="a" d="M53.45,2.265a.957.957,0,0,0-.863-.228l-.567.118a.986.986,0,0,0-.7.7c-.455,1.93-.9,3.864-1.342,5.8-.995-1.961-2.044-3.895-3.2-5.767-.676-1.092-2.407-.089-1.727,1.01a80.376,80.376,0,0,1,4.235,7.782q-.8,3.515-1.569,7.032a1.03,1.03,0,0,0,1.646,1.012.907.907,0,0,0,.526-.623c1.44-5.233,2.775-10.491,3.967-15.786A.964.964,0,0,0,53.45,2.265Z"/><path class="a" d="M84.38,4.444C82.739,2.451,80.27.835,77.6,1.438a1.091,1.091,0,0,0-.605.346,1.042,1.042,0,0,0-.344.876q.4,7.98.8,15.959a1.2,1.2,0,0,0,.169.567,1.13,1.13,0,0,0,1.144,1.029c4.815.061,8.552-4.456,8.314-9.119A11.431,11.431,0,0,0,84.38,4.444ZM80.374,17.549,79.6,4.316c-.006-.17,0-.34-.012-.51a6.827,6.827,0,0,1,3.222,2.5,8.749,8.749,0,0,1,1.872,5.047A6.4,6.4,0,0,1,80.374,17.549Z"/><path class="a" d="M76.019,18.04a28.951,28.951,0,0,0-4.545-5.027c.016-.012.035-.017.05-.03a9.931,9.931,0,0,0,2.044-2.412,7.014,7.014,0,0,0,.7-1.461,5.425,5.425,0,0,0,.172-1.759,4.619,4.619,0,0,0-.859-2.982,6.886,6.886,0,0,0-2.847-1.682.762.762,0,0,0-.326-.043,13.788,13.788,0,0,0-3-.423c-1.325-.305-2.242.93-2.19,2.177.065,1.566.5,3.178.72,4.732.463,3.282.8,6.582,1.041,9.888.041.569.619,1.236,1.266.965l.191-.08a1.069,1.069,0,0,0,1.405-1.116q-.18-2.2-.405-4.393a25.61,25.61,0,0,1,4.519,4.858C74.832,20.5,76.914,19.3,76.019,18.04Zm-6.928-6.787q-.378-3.294-.852-6.576c1.655.154,3.428.626,3.6,2.559A4.019,4.019,0,0,1,69.091,11.253Z"/><path class="a" d="M99.667,10.151a.93.93,0,0,0-.127-.084q-3.16-3.161-6.609-6.009a1.029,1.029,0,0,0-1.414,0,1.008,1.008,0,0,0,0,1.415c1.964,1.62,3.844,3.337,5.667,5.112a25.659,25.659,0,0,0-2.522,2.16l-2.9,2.688A1,1,0,0,0,91.59,16.6a.961.961,0,0,0,.095.279,1,1,0,0,0,1.368.359,81.207,81.207,0,0,0,6.511-5.581.914.914,0,0,0,.1-.062.974.974,0,0,0,.22-.348A1.03,1.03,0,0,0,99.667,10.151Z"/></svg>