<svg xmlns="http://www.w3.org/2000/svg" viewBox="0 0 114.089 19.462"><defs><style>.a{fill:#9d8730;}</style></defs><title>words1</title><path class="a" d="M2.945,8.888A.872.872,0,0,1,3.072,8.8Q6.233,5.645,9.68,2.8a1.029,1.029,0,0,1,1.414,0,1.007,1.007,0,0,1,0,1.414C9.131,5.83,7.251,7.547,5.428,9.322a25.657,25.657,0,0,1,2.521,2.161l2.9,2.688a1,1,0,0,1,.168,1.167.957.957,0,0,1-.1.28,1.006,1.006,0,0,1-1.368.358A81.207,81.207,0,0,1,3.048,10.4a1.05,1.05,0,0,1-.1-.062.976.976,0,0,1-.219-.348A1.028,1.028,0,0,1,2.945,8.888Z"/><path class="a" d="M44.786.616l-8.737.676a1.229,1.229,0,0,0-1.2,1.2,1.21,1.21,0,0,0,1.2,1.2l2.8-.217q.178,6.491.472,12.979a1.031,1.031,0,0,0,1.474.866A1.089,1.089,0,0,0,41.78,16.2L41.725,3.253l3.061-.237a1.23,1.23,0,0,0,1.2-1.2A1.209,1.209,0,0,0,44.786.616Z"/><path class="a" d="M57.716,1.323a1.064,1.064,0,0,0-.351-.872A1.006,1.006,0,0,0,56.312.008c-1.183.221-1.436,1.449-1.549,2.457-.172,1.53-.268,3.07-.312,4.608-.008.271,0,.541-.007.812-1.411.082-2.823.153-4.236.185l-.072-6.584A1.2,1.2,0,0,0,48.429.429a1.014,1.014,0,0,0-.94.988q-.2,7.539-.181,15.082a1.015,1.015,0,0,0,1.266.964l.335-.059A1.129,1.129,0,0,0,50.3,16.278l-.063-5.809c1.41-.032,2.819-.1,4.227-.184.052,1.958.191,3.912.433,5.858a1.033,1.033,0,0,0,1,1c.019,0,.039,0,.059-.006A1.164,1.164,0,0,0,57.7,16.116Q57.466,8.721,57.716,1.323Z"/><path class="a" d="M24.955,10.558a4.516,4.516,0,0,0-1.831-1.836,4.436,4.436,0,0,0,1.15-4.1c-.475-1.7-2.213-2.63-3.752-3.213a.767.767,0,0,0-.392-.036,8.081,8.081,0,0,0-1.016-.193c-.016-.005-.024-.016-.041-.02a1.32,1.32,0,0,0-1.515.592,3.112,3.112,0,0,0-.164,1.656c.017,1.166-.083,2.33-.137,3.494a59.467,59.467,0,0,0,.095,7,.925.925,0,0,0-.052.254l0,2.569a1.02,1.02,0,0,0,.733.964,3.509,3.509,0,0,0,.477.1.755.755,0,0,0,.327.056c.264-.023.526-.05.788-.079a6.555,6.555,0,0,0,2.5-.548c.175-.066.352-.121.523-.2a4.909,4.909,0,0,0,2.387-2.61A4.393,4.393,0,0,0,24.955,10.558ZM22.071,5.45c.171,1.28-1,2.325-2.085,2.929-.082.018-.167.043-.251.067Q19.7,5.871,19.729,3.3A2.808,2.808,0,0,1,22.071,5.45Zm-.925,10.011-.057.019c-.088.031-.18.053-.27.078-.281.068-.576.119-.874.16-.078-1.7-.128-3.411-.166-5.117.01-.011.022-.022.033-.032a1.784,1.784,0,0,1,.171-.1l.013,0a.958.958,0,0,0,.428-.071,2.06,2.06,0,0,1,.371-.14l.01,0h0a4.713,4.713,0,0,1,.823-.008,1.721,1.721,0,0,1,.222.057,2.847,2.847,0,0,1,.3.138l.029.018a2.725,2.725,0,0,1,.294.211,2.539,2.539,0,0,1,.887,2.214A3.165,3.165,0,0,1,21.146,15.461Z"/><path class="a" d="M36.344,15.915Q33.866,8.7,30.936,1.647c-.009-.022-.025-.038-.034-.059A.884.884,0,0,0,29.775.936a.933.933,0,0,0-.886.712c-.251,1.654-1.356,9.183-1.8,11.041-.221.927-.524,1.84-.731,2.768a1.391,1.391,0,0,0,1.511,1.834.954.954,0,0,0,.873-.72q.377-2.457.752-4.913a17.351,17.351,0,0,0,2.945-.082,1.867,1.867,0,0,0,.223-.048q.9,2.451,1.754,4.919C34.83,17.657,36.763,17.137,36.344,15.915ZM29.8,9.662l.615-4.022c.524,1.318,1.024,2.645,1.525,3.972A17.568,17.568,0,0,1,29.8,9.662Z"/><path class="a" d="M70.445,15.781A28.879,28.879,0,0,0,65.9,10.754c.016-.012.035-.017.05-.03a9.936,9.936,0,0,0,2.044-2.413,6.929,6.929,0,0,0,.694-1.46,5.4,5.4,0,0,0,.173-1.759A4.618,4.618,0,0,0,68,2.11,6.864,6.864,0,0,0,65.155.428a.762.762,0,0,0-.326-.043,13.8,13.8,0,0,0-3-.423c-1.326-.305-2.242.929-2.19,2.177.065,1.565.5,3.178.719,4.731.464,3.283.8,6.583,1.042,9.889.041.569.619,1.236,1.266.965l.191-.081a1.068,1.068,0,0,0,1.405-1.115q-.18-2.2-.405-4.393a25.58,25.58,0,0,1,4.519,4.858C69.258,18.243,71.34,17.045,70.445,15.781ZM63.517,8.994q-.378-3.294-.852-6.576c1.655.154,3.428.626,3.6,2.559A4.019,4.019,0,0,1,63.517,8.994Z"/><path class="a" d="M81.988,5.03A5.91,5.91,0,0,0,79.554.848a4.22,4.22,0,0,0-3.51-.509A1.149,1.149,0,0,0,74.757.23c-2.677,1.4-3.232,4.681-3.326,7.418-.1,2.82-.041,6.2,1.907,8.451a4.179,4.179,0,0,0,4.156,1.45,5.651,5.651,0,0,0,3.263-3.121A15.95,15.95,0,0,0,81.988,5.03Zm-2.97,7.41a5.16,5.16,0,0,1-1.746,2.6,1.759,1.759,0,0,1-2.331-.752,5.248,5.248,0,0,1-.875-2.039,18.406,18.406,0,0,1,.328-5.151c.256-1.491.676-3.22,1.968-4.173a1.255,1.255,0,0,0,.132-.131,1.706,1.706,0,0,1,1.939.188,4.033,4.033,0,0,1,1.241,2.692A14.32,14.32,0,0,1,79.018,12.44Z"/><path class="a" d="M94.646,5.03A5.912,5.912,0,0,0,92.213.848,4.223,4.223,0,0,0,88.7.339,1.148,1.148,0,0,0,87.416.23c-2.677,1.4-3.233,4.681-3.326,7.418-.1,2.82-.041,6.2,1.907,8.451a4.179,4.179,0,0,0,4.156,1.45,5.65,5.65,0,0,0,3.262-3.121A15.95,15.95,0,0,0,94.646,5.03Zm-2.969,7.41a5.162,5.162,0,0,1-1.747,2.6c-.86.56-1.785-.024-2.331-.752a5.263,5.263,0,0,1-.875-2.039,18.443,18.443,0,0,1,.328-5.151c.256-1.491.677-3.22,1.968-4.173a1.255,1.255,0,0,0,.132-.131,1.706,1.706,0,0,1,1.939.188,4.028,4.028,0,0,1,1.241,2.692A14.32,14.32,0,0,1,91.677,12.44Z"/><path class="a" d="M111.768,16.108q-2.2-7.335-4-14.778a1.054,1.054,0,0,0-.064-.184.96.96,0,0,0-1.077-.6l-.371-.019a1.007,1.007,0,0,0-.965.735c-.66,3.4-1.432,6.772-2.291,10.126q-.894-4.509-1.789-9.017a.912.912,0,0,0,0-.467,1.006,1.006,0,0,0-.46-.6,1.02,1.02,0,0,0-.77-.1,2.234,2.234,0,0,0-.971.443,2.039,2.039,0,0,0-.46,1q-.194.717-.369,1.438a1.122,1.122,0,0,0-.019.317,112.761,112.761,0,0,0-3.215,12.084,1.015,1.015,0,0,0,.965,1.266c.19.006.38.013.571.018a.783.783,0,0,0,.141-.024,1.042,1.042,0,0,0,.221-.037c.023-.008.05-.009.072-.019a.874.874,0,0,0,.593-.647Q98.8,12,100.088,6.972q.959,4.836,1.918,9.67a1.008,1.008,0,0,0,1.929,0l2.843-11.111c.955,3.72,1.959,7.428,3.061,11.108A1,1,0,0,0,111.768,16.108Z"/></svg>