<svg xmlns="http://www.w3.org/2000/svg" xmlns:xlink="http://www.w3.org/1999/xlink" viewBox="0 0 246.421 188.261"><defs><style>.a{fill:#1b75bc;}.b{fill:#9d8730;}.c{fill:#fff;}.d{clip-path:url(#a);}.e{fill:#fbe794;}</style><clipPath id="a"><path class="a" d="M238.105,80.067c-.037-.108-.4-.986-.647-1.643a2.165,2.165,0,0,1-.224-.569c-.493-.922-.973-1.842-1.553-2.718-.171-.258-.281-.443-.355-.581-.328-.32-.722-.636-.853-.766-.382-.382-.826-.72-1.194-1.113-.023-.024-.034-.038-.052-.058l-.049-.035a13.87,13.87,0,0,1-4-4.35c-.753-.279-1.473-.538-2.136-.782-16.833-6.2-35.824-7.506-53.529-9.464Q144.2,54.747,114.707,53.7a2.769,2.769,0,0,0-1.626-.384c-19.613,1.046-39.251,2.36-58.643,5.607a233.319,233.319,0,0,0-29.133,6.682C18.742,67.6,12.162,69.993,8.533,76.2a3.127,3.127,0,0,0-.325.8,3.212,3.212,0,0,0,.435,4.81C19.131,89.276,31.573,92.455,43.92,95.38c14.309,3.391,28.717,7.6,43.316,9.5,14.083,1.831,28.629.693,42.736-.364,13.908-1.041,27.756-2.727,41.523-4.948a2.434,2.434,0,0,0,1.952.5A419.862,419.862,0,0,0,229.362,88.98c3.5-.952,8.4-2.14,10.841-5.1A12.918,12.918,0,0,1,238.105,80.067Z"/></clipPath></defs><title>bathfull</title><path class="b" d="M214.2,137.815a270.553,270.553,0,0,1-26.354,16.156,2.794,2.794,0,0,0-.5.346c-.54.264-1.084.52-1.623.785-1.8.883-1.844,3.4-.608,4.712,5.273,5.613,5.974,13.454,6.536,20.784.22,2.866,3.993,4.21,5.591,1.514a432.879,432.879,0,0,0,21.059-40.193C219.426,139.478,216.92,135.926,214.2,137.815Z"/><path class="b" d="M50.884,151.15Q44.3,147.3,37.769,143.379l-.319-.193q-6.515-4.362-12.571-9.334l-.025-.042c-1.472-2.4-4.63-1.436-5.439.546a2.434,2.434,0,0,0,.631,3.261c.054.045.109.088.164.133.058.1.117.2.176.3a7.576,7.576,0,0,0,.916,1.588,68.987,68.987,0,0,1,6.936,17.625c1.43,6,1.3,12.273,3.962,17.924,1.186,2.515,4.716,1.507,5.484-.717,2.6-7.542,8.238-13.138,13.807-18.608A3.031,3.031,0,0,0,50.884,151.15Z"/><path class="a" d="M98.448,53.924c-.035,0-.069.009-.1.012a2.174,2.174,0,0,0-.884-.889,2.541,2.541,0,0,0-3.421.9c-1.159,2.156-2.3,4.654-1.555,7.147a5.319,5.319,0,0,0,6.121,3.95,6.107,6.107,0,0,0,3.159-2.072,6.516,6.516,0,0,0,1.589-3.83A5,5,0,0,0,98.448,53.924Z"/><path class="c" d="M240.827,82.469c-.185-1.439-1.234-3.233-3-3Q183.3,86.654,128.335,89.6c-18.219.963-36.476,1.672-54.721,1.8-11.013.08-21.756-.672-32.131-3.212a2.505,2.505,0,0,0-1.5-1.932A146.341,146.341,0,0,0,22.4,78.977c-4.182-1.4-10.67-4.536-14.776-1.309C4.5,80.123,4.612,85.433,4.461,89.051a61.534,61.534,0,0,0,1.654,16.576c4.983,21.132,20.3,39.351,38.893,50.087,16.079,9.286,34.537,13.3,53.044,14.117a2.9,2.9,0,0,0,2.093.97,298.516,298.516,0,0,0,30.2-.055,3.454,3.454,0,0,0,.692-.109c14.873,1.676,29.669-1.113,43.673-6.123,12.954-4.634,26-10.575,37.421-18.3,19.027-12.864,30.269-33.384,28.847-55.9A36.464,36.464,0,0,0,240.827,82.469Z"/><path class="a" d="M238.105,80.067c-.037-.108-.4-.986-.647-1.643a2.165,2.165,0,0,1-.224-.569c-.493-.922-.973-1.842-1.553-2.718-.171-.258-.281-.443-.355-.581-.328-.32-.722-.636-.853-.766-.382-.382-.826-.72-1.194-1.113-.023-.024-.034-.038-.052-.058l-.049-.035a13.87,13.87,0,0,1-4-4.35c-.753-.279-1.473-.538-2.136-.782-16.833-6.2-35.824-7.506-53.529-9.464Q144.2,54.747,114.707,53.7a2.769,2.769,0,0,0-1.626-.384c-19.613,1.046-39.251,2.36-58.643,5.607a233.319,233.319,0,0,0-29.133,6.682C18.742,67.6,12.162,69.993,8.533,76.2a3.127,3.127,0,0,0-.325.8,3.212,3.212,0,0,0,.435,4.81C19.131,89.276,31.573,92.455,43.92,95.38c14.309,3.391,28.717,7.6,43.316,9.5,14.083,1.831,28.629.693,42.736-.364,13.908-1.041,27.756-2.727,41.523-4.948a2.434,2.434,0,0,0,1.952.5A419.862,419.862,0,0,0,229.362,88.98c3.5-.952,8.4-2.14,10.841-5.1A12.918,12.918,0,0,1,238.105,80.067Z"/><g class="d"><path class="e" d="M222.306,42.524c-6.877-2.41-14.37-3.137-21.574-3.937-8.355-.928-16.746-1.477-25.144-1.824-1.5-.062-2.99-.112-4.486-.164a2.921,2.921,0,0,0-2.876-2.879c-12.056-.416-24.1-.692-36.042.819a3.076,3.076,0,0,0-1.391-.428c-28.106-1.873-58.107-6.494-85.667,1.438a2.719,2.719,0,0,0-1.784-.477c-11.41.615-35.76,7.011-41.286,18.087-5.288,10.6-4.765,31.68,4.469,35.546-1.149,2.1,14.774-7.642,17.622-8.634,56.8-19.764,123.338-18.331,179.877-.7,9.893,3.085,23.923,12.378,24.513,12.041,7.242.542,8.34-3.594,15.488-4.956,5.793-1.105-5.107-12.135-3.535-18.271C243.6,56.052,232.6,46.133,222.306,42.524Z"/></g><path class="c" d="M237.742,74.344c-8.554-8.74-19.735-10.891-31.314-12.877q-11.9-2.04-23.81-3.989a2.977,2.977,0,0,0-1.284-.229H181.2c-18.248-2.945-36.544-5.573-54.955-7.309a2.6,2.6,0,0,0-1.8.429,460.613,460.613,0,0,0-70.563,4.516c-10.265,1.466-20.506,3.466-30.051,7.647-8.375,3.67-17.4,9.257-19.32,18.893a2.949,2.949,0,0,0,1,2.914,11.1,11.1,0,0,0,4.9,6.213c3.328,1.977,6.349-3.208,3.029-5.18a4.955,4.955,0,0,1-2.413-4.766.218.218,0,0,1,0-.025c3.253-8.241,13.766-12.445,21.566-15a122.782,122.782,0,0,1,19.589-4.43c.1.014.2.04.311.045,16.489.76,32.9-1.723,49.367-2.144,14.535-.372,29.066.206,43.572,1.089,11.8,1.8,23.616,3.419,35.58,3.108q5.163.837,10.322,1.7c9.8,1.648,20.311,2.519,29.736,5.768a31.736,31.736,0,0,1,12.989,8.455c5.169,5.649,2.021,10.735-2.821,15.262-2.828,2.642,1.422,6.878,4.242,4.242C243.326,91.341,245.8,82.573,237.742,74.344Z"/><path class="b" d="M135.486,8.326A5.324,5.324,0,0,0,127,5.906c-4.163,3.33-5.8,9.7-6.121,14.713-.251,3.855,5.75,3.84,6,0a17.016,17.016,0,0,1,2.207-7.678c1.818-3.123,1.039-1.223.788,1.288-.416,4.163-.325,8.44-.486,12.62L128.377,53.06c-.149,3.862,5.852,3.855,6,0q.448-11.649.9-23.3l.449-11.649C135.843,15.031,136.628,11.288,135.486,8.326Z"/><path class="b" d="M159.849,38.633c-1.672-.216-3.343-.372-5.016-.5-.584-2.856-5.164-3.735-5.774-.376-.007.037-.012.074-.019.111-1.7-.026-3.4-.024-5.1.04-3.849.145-3.867,6.146,0,6,1.413-.053,2.823-.07,4.232-.061a84.046,84.046,0,0,0-.518,11.461c.094,3.855,6.094,3.869,6,0a80.553,80.553,0,0,1,.509-11.22c1.9.131,3.8.3,5.691.544C163.668,45.126,163.631,39.121,159.849,38.633Z"/><path class="b" d="M117.451,36.512c-1.385.145-2.772.255-4.158.349-.323-3.635-6.079-3.587-5.974.208v.041q-1.767.026-3.538,0c-3.862-.068-3.862,5.932,0,6,1.237.021,2.472.018,3.706,0l.235,8.429c.107,3.853,6.108,3.87,6,0l-.242-8.685c1.323-.091,2.647-.2,3.97-.337C121.253,42.115,121.293,36.11,117.451,36.512Z"/><path class="c" d="M236.083,81.42c-.02,1.749.227,3.282-.959,4.716a9.048,9.048,0,0,1-4.453,2.508c-3.674,1.146-2.106,6.94,1.595,5.786a15.193,15.193,0,0,0,7.494-4.522c2.137-2.607,2.286-5.251,2.323-8.488C242.128,77.559,236.128,77.556,236.083,81.42Z"/><path class="c" d="M240.827,82.469c-.185-1.439-1.234-3.233-3-3Q183.3,86.654,128.335,89.6c-18.219.963-36.476,1.672-54.721,1.8-11.013.08-21.756-.672-32.131-3.212a2.505,2.505,0,0,0-1.5-1.932A146.341,146.341,0,0,0,22.4,78.977c-4.182-1.4-10.67-4.536-14.776-1.309C4.5,80.123,4.612,85.433,4.461,89.051a61.534,61.534,0,0,0,1.654,16.576c4.983,21.132,20.3,39.351,38.893,50.087,16.079,9.286,34.537,13.3,53.044,14.117a2.9,2.9,0,0,0,2.093.97,298.516,298.516,0,0,0,30.2-.055,3.454,3.454,0,0,0,.692-.109c14.873,1.676,29.669-1.113,43.673-6.123,12.954-4.634,26-10.575,37.421-18.3,19.027-12.864,30.269-33.384,28.847-55.9A36.464,36.464,0,0,0,240.827,82.469Z"/><path class="a" d="M238.105,80.067c-.037-.108-.4-.986-.647-1.643a2.165,2.165,0,0,1-.224-.569c-.493-.922-.973-1.842-1.553-2.718-.171-.258-.281-.443-.355-.581-.328-.32-.722-.636-.853-.766-.382-.382-.826-.72-1.194-1.113-.023-.024-.034-.038-.052-.058l-.049-.035a13.87,13.87,0,0,1-4-4.35c-.753-.279-1.473-.538-2.136-.782-16.833-6.2-35.824-7.506-53.529-9.464Q144.2,54.747,114.707,53.7a2.769,2.769,0,0,0-1.626-.384c-19.613,1.046-39.251,2.36-58.643,5.607a233.319,233.319,0,0,0-29.133,6.682C18.742,67.6,12.162,69.993,8.533,76.2a3.127,3.127,0,0,0-.325.8,3.212,3.212,0,0,0,.435,4.81C19.131,89.276,31.573,92.455,43.92,95.38c14.309,3.391,28.717,7.6,43.316,9.5,14.083,1.831,28.629.693,42.736-.364,13.908-1.041,27.756-2.727,41.523-4.948a2.434,2.434,0,0,0,1.952.5A419.862,419.862,0,0,0,229.362,88.98c3.5-.952,8.4-2.14,10.841-5.1A12.918,12.918,0,0,1,238.105,80.067Z"/><path class="c" d="M237.742,74.344c-8.554-8.74-19.735-10.891-31.314-12.877q-11.9-2.04-23.81-3.989a2.977,2.977,0,0,0-1.284-.229H181.2c-18.248-2.945-36.544-5.573-54.955-7.309a2.6,2.6,0,0,0-1.8.429,460.613,460.613,0,0,0-70.563,4.516c-10.265,1.466-20.506,3.466-30.051,7.647-8.375,3.67-17.4,9.257-19.32,18.893a2.949,2.949,0,0,0,1,2.914,11.1,11.1,0,0,0,4.9,6.213c3.328,1.977,6.349-3.208,3.029-5.18a4.955,4.955,0,0,1-2.413-4.766.218.218,0,0,1,0-.025c3.253-8.241,13.766-12.445,21.566-15a122.782,122.782,0,0,1,19.589-4.43c.1.014.2.04.311.045,16.489.76,32.9-1.723,49.367-2.144,14.535-.372,29.066.206,43.572,1.089,11.8,1.8,23.616,3.419,35.58,3.108q5.163.837,10.322,1.7c9.8,1.648,20.311,2.519,29.736,5.768a31.736,31.736,0,0,1,12.989,8.455c5.169,5.649,2.021,10.735-2.821,15.262-2.828,2.642,1.422,6.878,4.242,4.242C243.326,91.341,245.8,82.573,237.742,74.344Z"/><path class="b" d="M135.486,8.326A5.324,5.324,0,0,0,127,5.906c-4.163,3.33-5.8,9.7-6.121,14.713-.251,3.855,5.75,3.84,6,0a17.016,17.016,0,0,1,2.207-7.678c1.818-3.123,1.039-1.223.788,1.288-.416,4.163-.325,8.44-.486,12.62L128.377,53.06c-.149,3.862,5.852,3.855,6,0q.448-11.649.9-23.3l.449-11.649C135.843,15.031,136.628,11.288,135.486,8.326Z"/><path class="b" d="M159.849,38.633c-1.672-.216-3.343-.372-5.016-.5-.584-2.856-5.164-3.735-5.774-.376-.007.037-.012.074-.019.111-1.7-.026-3.4-.024-5.1.04-3.849.145-3.867,6.146,0,6,1.413-.053,2.823-.07,4.232-.061a84.046,84.046,0,0,0-.518,11.461c.094,3.855,6.094,3.869,6,0a80.553,80.553,0,0,1,.509-11.22c1.9.131,3.8.3,5.691.544C163.668,45.126,163.631,39.121,159.849,38.633Z"/><path class="b" d="M117.451,36.512c-1.385.145-2.772.255-4.158.349-.323-3.635-6.079-3.587-5.974.208v.041q-1.767.026-3.538,0c-3.862-.068-3.862,5.932,0,6,1.237.021,2.472.018,3.706,0l.235,8.429c.107,3.853,6.108,3.87,6,0l-.242-8.685c1.323-.091,2.647-.2,3.97-.337C121.253,42.115,121.293,36.11,117.451,36.512Z"/><path class="c" d="M236.083,81.42c-.02,1.749.227,3.282-.959,4.716a9.048,9.048,0,0,1-4.453,2.508c-3.674,1.146-2.106,6.94,1.595,5.786a15.193,15.193,0,0,0,7.494-4.522c2.137-2.607,2.286-5.251,2.323-8.488C242.128,77.559,236.128,77.556,236.083,81.42Z"/><path class="c" d="M51.462,79.785a10.973,10.973,0,0,0-1.448-5.478,5.133,5.133,0,0,0-4.528-2.478c-.024,0-.047.008-.07.012a5.268,5.268,0,0,0-4.277,1.432,8.131,8.131,0,0,0-2.231,4.3c-.7,3.213-.559,6.857,1.531,9.543a6.2,6.2,0,0,0,7.892,1.9A5.755,5.755,0,0,0,50.9,85.261,18.178,18.178,0,0,0,51.462,79.785ZM48.153,84.82c-.392,1.284-.931,2.566-2.366,2.857-2.786.564-4.357-2.423-4.6-4.749a20.458,20.458,0,0,1,.725-5.973c.473-1.59,1.6-3.33,3.464-3.258a.687.687,0,0,0,.08-.005,1.188,1.188,0,0,0,.571.05c-.1.015.058.04.063.042a5.1,5.1,0,0,1,.449.241c.275.154.548.312.809.49a2.944,2.944,0,0,1,1.05,1.24,6.2,6.2,0,0,1,.42,3.61,1.15,1.15,0,0,0-.01.32c0,.016,0,.031,0,.047A17.1,17.1,0,0,1,48.153,84.82Z"/><path class="c" d="M36.277,87.218q.175-7.524.495-15.044a.906.906,0,0,0-.9-.9l-.75.039a.931.931,0,0,0-.828,1.215q-.117,6.025-.481,12.04-2.981-6.224-6.22-12.319a.773.773,0,0,0-.88-.425.912.912,0,0,0-.288.04l-.387.121a.919.919,0,0,0-.66.868l.378,14.965a.691.691,0,0,0-.039.24l.033.24a.893.893,0,0,0,.231.4l.182.14a.887.887,0,0,0,.454.123h.769a.173.173,0,0,0,.032,0,.8.8,0,0,0,.875-.865q-.312-5.782-.493-11.57,3.006,5.811,5.779,11.74a.851.851,0,0,0,.392.661.871.871,0,0,0,.29.146l.022.017a.9.9,0,0,0,.454.123l.363-.027a1.229,1.229,0,0,0,.564-.143.137.137,0,0,0,.02-.013l.182-.14a1.111,1.111,0,0,0,.158-.2.991.991,0,0,0,.058-.13.96.96,0,0,0,.056-.139c.031-.114.048-.234.071-.35l.073-.367a.675.675,0,0,0,.016-.359A.7.7,0,0,0,36.277,87.218Z"/><path class="c" d="M62.554,70.643q-5.035,0-10.06.4a.923.923,0,0,0-.9.9.907.907,0,0,0,.9.9c1.174-.094,2.348-.165,3.523-.226q.328,7.673.992,15.327a.92.92,0,0,0,.9.9l1.321,0a.914.914,0,0,0,.868-1.14,126.574,126.574,0,0,1-1.829-15.183c1.428-.049,2.856-.079,4.285-.08A.9.9,0,0,0,62.554,70.643Z"/><path class="c" d="M91.841,72.482a1.112,1.112,0,0,0-.747-1.072.805.805,0,0,0-.546-.181l-.742.067a1.036,1.036,0,0,0-1,1A100.814,100.814,0,0,0,88.4,82.909a72.623,72.623,0,0,1-4.894-10.2,1.215,1.215,0,0,0-2.169-.282,1,1,0,0,0-.22.523q-.8,7.839-1.262,15.705a1.024,1.024,0,0,0,1,1l.659.08a.739.739,0,0,0,.42-.08,1.161,1.161,0,0,0,.85-1.093q.253-5.141.506-10.281a75.427,75.427,0,0,0,5.89,10.448,1.211,1.211,0,0,0,2.236-.606Q91.973,80.315,91.841,72.482Z"/><path class="c" d="M111.452,71.466l-8.736.676a1.23,1.23,0,0,0-1.2,1.2,1.209,1.209,0,0,0,1.2,1.2l2.8-.216q.18,6.49.473,12.979a1.03,1.03,0,0,0,1.473.866,1.09,1.09,0,0,0,.982-1.124L108.391,74.1l3.061-.236a1.231,1.231,0,0,0,1.2-1.2A1.209,1.209,0,0,0,111.452,71.466Z"/><path class="c" d="M124.382,72.173a1.063,1.063,0,0,0-.35-.872,1.007,1.007,0,0,0-1.054-.443c-1.182.221-1.436,1.449-1.549,2.457-.171,1.53-.268,3.07-.311,4.608-.008.271,0,.541-.008.812-1.411.082-2.823.153-4.236.185l-.072-6.585a1.2,1.2,0,0,0-1.707-1.056,1.015,1.015,0,0,0-.94.988q-.2,7.539-.181,15.082a1.016,1.016,0,0,0,1.266.964l.336-.059a1.131,1.131,0,0,0,1.387-1.127l-.063-5.808c1.409-.032,2.818-.1,4.226-.184.053,1.958.192,3.912.433,5.858a1.034,1.034,0,0,0,1,1c.019,0,.039,0,.059-.006a1.164,1.164,0,0,0,1.751-1.021Q124.132,79.571,124.382,72.173Z"/><path class="c" d="M171,70.65l-8.736.676a1.23,1.23,0,0,0-1.2,1.2,1.209,1.209,0,0,0,1.2,1.2l2.8-.216q.18,6.49.473,12.979a1.03,1.03,0,0,0,1.473.866A1.09,1.09,0,0,0,168,86.23l-.056-12.944L171,73.05a1.231,1.231,0,0,0,1.2-1.2A1.209,1.209,0,0,0,171,70.65Z"/><path class="c" d="M195.918,70.174l-8.737.676a1.229,1.229,0,0,0-1.2,1.2,1.208,1.208,0,0,0,1.2,1.2l2.8-.216q.18,6.49.473,12.979a1.03,1.03,0,0,0,1.473.866,1.09,1.09,0,0,0,.982-1.124l-.056-12.944,3.062-.236a1.23,1.23,0,0,0,1.2-1.2A1.208,1.208,0,0,0,195.918,70.174Z"/><path class="c" d="M183.934,71.357a1.063,1.063,0,0,0-.35-.872,1.007,1.007,0,0,0-1.054-.443c-1.182.221-1.436,1.449-1.549,2.457-.171,1.53-.268,3.07-.311,4.608-.008.271,0,.541-.008.812-1.411.082-2.823.153-4.236.185l-.072-6.585a1.2,1.2,0,0,0-1.707-1.056,1.015,1.015,0,0,0-.94.988q-.2,7.539-.181,15.082a1.016,1.016,0,0,0,1.266.964l.336-.059a1.13,1.13,0,0,0,1.387-1.127l-.063-5.808c1.409-.032,2.818-.1,4.226-.184.053,1.958.192,3.912.433,5.858a1.034,1.034,0,0,0,1,1c.019,0,.039-.005.059-.006a1.164,1.164,0,0,0,1.751-1.021Q183.684,78.755,183.934,71.357Z"/><path class="c" d="M134.951,85.47c-1.48.122-2.975.283-4.466.308q-.125-2.486-.166-4.974c.576,0,1.152-.016,1.726-.066a1.294,1.294,0,0,0,.848-.352,1.2,1.2,0,0,0,0-1.7,1.176,1.176,0,0,0-.848-.352c-.581.051-1.164.066-1.747.067,0-1.578.016-3.156.063-4.734.928-.021,1.856-.058,2.781-.131a1.2,1.2,0,1,0,0-2.4c-1.352.109-2.708.158-4.065.159a1.213,1.213,0,0,0-1.487,1.134,130.389,130.389,0,0,0,.239,14.487,1.266,1.266,0,0,0,.147.515,1.218,1.218,0,0,0,.115.171l.011.016a1.239,1.239,0,0,0,.97.547,41.443,41.443,0,0,0,5.879-.3,1.2,1.2,0,0,0,0-2.4Z"/><path class="c" d="M74.28,71.524a.936.936,0,0,0-.172-.11c-1.515-.595-1.772,1.457-1.881,2.407q-.293,2.534-.442,5.079a92.666,92.666,0,0,0-.039,10.028,1.02,1.02,0,0,0,.735.965l1.121.2a1.019,1.019,0,0,0,1.266-.965q.572-8.319.551-16.662A.955.955,0,0,0,74.28,71.524Z"/><path class="c" d="M151.173,80.592a4.522,4.522,0,0,0-1.83-1.837,4.433,4.433,0,0,0,1.149-4.1c-.475-1.7-2.213-2.631-3.751-3.213a.772.772,0,0,0-.393-.036,8.051,8.051,0,0,0-1.016-.194c-.016,0-.024-.015-.041-.02a1.32,1.32,0,0,0-1.514.593,3.1,3.1,0,0,0-.165,1.656c.018,1.166-.082,2.33-.137,3.494a59.467,59.467,0,0,0,.095,7,.963.963,0,0,0-.052.254l0,2.569a1.02,1.02,0,0,0,.734.964,3.494,3.494,0,0,0,.476.1.77.77,0,0,0,.327.056c.264-.023.526-.05.788-.079a6.579,6.579,0,0,0,2.5-.548c.174-.066.352-.121.523-.2a4.91,4.91,0,0,0,2.386-2.609A4.393,4.393,0,0,0,151.173,80.592Zm-2.884-5.108c.172,1.28-.995,2.325-2.085,2.929-.082.018-.167.043-.251.066q-.033-2.574,0-5.15A2.806,2.806,0,0,1,148.289,75.484ZM147.365,85.5l-.058.019c-.088.031-.18.053-.27.078a8.835,8.835,0,0,1-.874.16c-.078-1.706-.128-3.411-.166-5.117.011-.011.022-.022.034-.032a1.768,1.768,0,0,1,.17-.1l.013-.005a.943.943,0,0,0,.428-.07,2.041,2.041,0,0,1,.372-.14l.009,0h0a4.7,4.7,0,0,1,.822-.008,1.736,1.736,0,0,1,.223.057,2.832,2.832,0,0,1,.3.138c.01,0,.019.012.029.018a2.839,2.839,0,0,1,.295.211,2.54,2.54,0,0,1,.886,2.213A3.164,3.164,0,0,1,147.365,85.5Z"/><path class="c" d="M219.256,79.667a4.518,4.518,0,0,0-1.831-1.837,4.434,4.434,0,0,0,1.15-4.1c-.475-1.7-2.213-2.631-3.752-3.213a.767.767,0,0,0-.392-.036,8.085,8.085,0,0,0-1.016-.194c-.016,0-.024-.015-.041-.02a1.322,1.322,0,0,0-1.515.593,3.111,3.111,0,0,0-.164,1.656c.018,1.166-.083,2.33-.137,3.494a59.467,59.467,0,0,0,.095,7,.926.926,0,0,0-.052.253l0,2.57a1.02,1.02,0,0,0,.734.964,3.464,3.464,0,0,0,.476.1.755.755,0,0,0,.327.055c.264-.023.526-.049.788-.078a6.552,6.552,0,0,0,2.5-.549c.175-.065.353-.12.523-.2a4.907,4.907,0,0,0,2.387-2.609A4.393,4.393,0,0,0,219.256,79.667Zm-2.884-5.108c.172,1.28-1,2.324-2.085,2.929-.082.018-.167.043-.251.066Q214,74.98,214.03,72.4A2.806,2.806,0,0,1,216.372,74.559Zm-.925,10.011-.057.019c-.088.031-.18.053-.27.078a8.835,8.835,0,0,1-.874.16c-.078-1.706-.128-3.411-.166-5.117.01-.012.022-.022.033-.033.056-.034.112-.066.171-.1l.013,0a.943.943,0,0,0,.428-.07,2.06,2.06,0,0,1,.371-.14l.01,0h0a4.7,4.7,0,0,1,.822-.008,1.681,1.681,0,0,1,.222.057,2.755,2.755,0,0,1,.3.138c.01,0,.019.012.029.018a2.986,2.986,0,0,1,.295.21,2.543,2.543,0,0,1,.886,2.214A3.167,3.167,0,0,1,215.447,84.57Z"/><path class="c" d="M162.562,85.949q-2.478-7.218-5.408-14.268c-.009-.022-.024-.038-.034-.059a1.079,1.079,0,0,0-2.012.06c-.252,1.653-1.357,9.183-1.8,11.041-.221.927-.523,1.84-.731,2.768a1.391,1.391,0,0,0,1.512,1.834.952.952,0,0,0,.872-.72q.377-2.457.752-4.914a17.257,17.257,0,0,0,2.946-.081,1.851,1.851,0,0,0,.222-.048q.9,2.451,1.754,4.918C161.049,87.691,162.981,87.171,162.562,85.949ZM156.017,79.7q.308-2.011.616-4.022c.524,1.318,1.024,2.645,1.525,3.972A17.589,17.589,0,0,1,156.017,79.7Z"/><path class="c" d="M208.885,70.908a1.018,1.018,0,0,0-1-1h-.455a.947.947,0,0,0-.963,1.022c0,.014-.007.023-.007.037.04,3.045.09,6.089.12,9.134.015,1.39.018,3.494-1.065,4.536a.817.817,0,0,0-.115.031,2.238,2.238,0,0,1-1.891.312,2.638,2.638,0,0,1-1.271-1.393,16.415,16.415,0,0,1-.94-4.845,49.913,49.913,0,0,1-.305-5.084,5.767,5.767,0,0,0-.159-2.389,1.279,1.279,0,0,0-1.811-.538.852.852,0,0,0-.481.86c0,.007,0,.012-.006.019a36.734,36.734,0,0,0,.174,8.212c.289,2.156.573,4.883,2.343,6.4a4.432,4.432,0,0,0,4.586.66,1.006,1.006,0,0,0,.461-.111c2.388-1.225,2.974-4.19,3.106-6.628A90.442,90.442,0,0,0,208.885,70.908Z"/></svg>