<svg xmlns="http://www.w3.org/2000/svg" xmlns:xlink="http://www.w3.org/1999/xlink" viewBox="0 0 246.421 188.261"><defs><style>.a{fill:#1b75bc;}.b{fill:#9d8730;}.c{fill:#fff;}.d{clip-path:url(#a);}.e{fill:#fbe794;}.f{clip-path:url(#c);}</style><clipPath id="a"><path class="a" d="M238.105,80.067c-.037-.108-.4-.986-.647-1.643a2.165,2.165,0,0,1-.224-.569c-.493-.922-.973-1.842-1.553-2.718-.171-.258-.281-.443-.355-.581-.328-.32-.722-.636-.853-.766-.382-.382-.826-.72-1.194-1.113-.023-.024-.034-.038-.052-.058l-.049-.035a13.87,13.87,0,0,1-4-4.35c-.753-.279-1.473-.538-2.136-.782-16.833-6.2-35.824-7.506-53.529-9.464Q144.2,54.747,114.707,53.7a2.769,2.769,0,0,0-1.626-.384c-19.613,1.046-39.251,2.36-58.643,5.607a233.319,233.319,0,0,0-29.133,6.682C18.742,67.6,12.162,69.993,8.533,76.2a3.127,3.127,0,0,0-.325.8,3.212,3.212,0,0,0,.435,4.81C19.131,89.276,31.573,92.455,43.92,95.38c14.309,3.391,28.717,7.6,43.316,9.5,14.083,1.831,28.629.693,42.736-.364,13.908-1.041,27.756-2.727,41.523-4.948a2.434,2.434,0,0,0,1.952.5A419.862,419.862,0,0,0,229.362,88.98c3.5-.952,8.4-2.14,10.841-5.1A12.918,12.918,0,0,1,238.105,80.067Z"/></clipPath><clipPath id="c"><path class="a" d="M235.824,82.361c-.036-.107-.4-.986-.647-1.642a2.151,2.151,0,0,1-.223-.57c-.493-.922-.973-1.841-1.553-2.717-.171-.258-.282-.444-.355-.582-.328-.32-.722-.636-.853-.766-.382-.382-.826-.72-1.194-1.112-.023-.025-.034-.038-.052-.059l-.049-.035a13.87,13.87,0,0,1-4-4.35c-.753-.279-1.473-.538-2.136-.782-16.834-6.2-35.824-7.506-53.529-9.463q-29.315-3.242-58.8-4.286a2.762,2.762,0,0,0-1.626-.385C91.188,56.658,71.55,57.973,52.158,61.22A233.493,233.493,0,0,0,23.025,67.9C16.462,69.889,9.882,72.288,6.253,78.5a3.168,3.168,0,0,0-.326.8,3.212,3.212,0,0,0,.436,4.81C16.851,91.57,29.293,94.749,41.64,97.675c14.308,3.39,28.717,7.6,43.316,9.5,14.083,1.831,28.629.693,42.736-.363,13.907-1.042,27.756-2.728,41.523-4.949a2.428,2.428,0,0,0,1.952.5,419.893,419.893,0,0,0,55.915-11.083c3.5-.952,8.4-2.139,10.841-5.1A12.919,12.919,0,0,1,235.824,82.361Z"/></clipPath></defs><title>bathfull</title><path class="b" d="M214.2,137.815a270.553,270.553,0,0,1-26.354,16.156,2.794,2.794,0,0,0-.5.346c-.54.264-1.084.52-1.623.785-1.8.883-1.844,3.4-.608,4.712,5.273,5.613,5.974,13.454,6.536,20.784.22,2.866,3.993,4.21,5.591,1.514a432.879,432.879,0,0,0,21.059-40.193C219.426,139.478,216.92,135.926,214.2,137.815Z"/><path class="b" d="M50.884,151.15Q44.3,147.3,37.769,143.379l-.319-.193q-6.515-4.362-12.571-9.334l-.025-.042c-1.472-2.4-4.63-1.436-5.439.546a2.434,2.434,0,0,0,.631,3.261c.054.045.109.088.164.133.058.1.117.2.176.3a7.576,7.576,0,0,0,.916,1.588,68.987,68.987,0,0,1,6.936,17.625c1.43,6,1.3,12.273,3.962,17.924,1.186,2.515,4.716,1.507,5.484-.717,2.6-7.542,8.238-13.138,13.807-18.608A3.031,3.031,0,0,0,50.884,151.15Z"/><path class="a" d="M98.448,53.924c-.035,0-.069.009-.1.012a2.174,2.174,0,0,0-.884-.889,2.541,2.541,0,0,0-3.421.9c-1.159,2.156-2.3,4.654-1.555,7.147a5.319,5.319,0,0,0,6.121,3.95,6.107,6.107,0,0,0,3.159-2.072,6.516,6.516,0,0,0,1.589-3.83A5,5,0,0,0,98.448,53.924Z"/><path class="c" d="M240.827,82.469c-.185-1.439-1.234-3.233-3-3Q183.3,86.654,128.335,89.6c-18.219.963-36.476,1.672-54.721,1.8-11.013.08-21.756-.672-32.131-3.212a2.505,2.505,0,0,0-1.5-1.932A146.341,146.341,0,0,0,22.4,78.977c-4.182-1.4-10.67-4.536-14.776-1.309C4.5,80.123,4.612,85.433,4.461,89.051a61.534,61.534,0,0,0,1.654,16.576c4.983,21.132,20.3,39.351,38.893,50.087,16.079,9.286,34.537,13.3,53.044,14.117a2.9,2.9,0,0,0,2.093.97,298.516,298.516,0,0,0,30.2-.055,3.454,3.454,0,0,0,.692-.109c14.873,1.676,29.669-1.113,43.673-6.123,12.954-4.634,26-10.575,37.421-18.3,19.027-12.864,30.269-33.384,28.847-55.9A36.464,36.464,0,0,0,240.827,82.469Z"/><path class="a" d="M238.105,80.067c-.037-.108-.4-.986-.647-1.643a2.165,2.165,0,0,1-.224-.569c-.493-.922-.973-1.842-1.553-2.718-.171-.258-.281-.443-.355-.581-.328-.32-.722-.636-.853-.766-.382-.382-.826-.72-1.194-1.113-.023-.024-.034-.038-.052-.058l-.049-.035a13.87,13.87,0,0,1-4-4.35c-.753-.279-1.473-.538-2.136-.782-16.833-6.2-35.824-7.506-53.529-9.464Q144.2,54.747,114.707,53.7a2.769,2.769,0,0,0-1.626-.384c-19.613,1.046-39.251,2.36-58.643,5.607a233.319,233.319,0,0,0-29.133,6.682C18.742,67.6,12.162,69.993,8.533,76.2a3.127,3.127,0,0,0-.325.8,3.212,3.212,0,0,0,.435,4.81C19.131,89.276,31.573,92.455,43.92,95.38c14.309,3.391,28.717,7.6,43.316,9.5,14.083,1.831,28.629.693,42.736-.364,13.908-1.041,27.756-2.727,41.523-4.948a2.434,2.434,0,0,0,1.952.5A419.862,419.862,0,0,0,229.362,88.98c3.5-.952,8.4-2.14,10.841-5.1A12.918,12.918,0,0,1,238.105,80.067Z"/><g class="d"><path class="e" d="M222.306,42.524c-6.877-2.41-14.37-3.137-21.574-3.937-8.355-.928-16.746-1.477-25.144-1.824-1.5-.062-2.99-.112-4.486-.164a2.921,2.921,0,0,0-2.876-2.879c-12.056-.416-24.1-.692-36.042.819a3.076,3.076,0,0,0-1.391-.428c-28.106-1.873-58.107-6.494-85.667,1.438a2.719,2.719,0,0,0-1.784-.477c-11.41.615-35.76,7.011-41.286,18.087-5.288,10.6-4.765,31.68,4.469,35.546-1.149,2.1,14.774-7.642,17.622-8.634,56.8-19.764,123.338-18.331,179.877-.7,9.893,3.085,23.923,12.378,24.513,12.041,7.242.542,8.34-3.594,15.488-4.956,5.793-1.105-5.107-12.135-3.535-18.271C243.6,56.052,232.6,46.133,222.306,42.524Z"/></g><path class="c" d="M237.742,74.344c-8.554-8.74-19.735-10.891-31.314-12.877q-11.9-2.04-23.81-3.989a2.977,2.977,0,0,0-1.284-.229H181.2c-18.248-2.945-36.544-5.573-54.955-7.309a2.6,2.6,0,0,0-1.8.429,460.613,460.613,0,0,0-70.563,4.516c-10.265,1.466-20.506,3.466-30.051,7.647-8.375,3.67-17.4,9.257-19.32,18.893a2.949,2.949,0,0,0,1,2.914,11.1,11.1,0,0,0,4.9,6.213c3.328,1.977,6.349-3.208,3.029-5.18a4.955,4.955,0,0,1-2.413-4.766.218.218,0,0,1,0-.025c3.253-8.241,13.766-12.445,21.566-15a122.782,122.782,0,0,1,19.589-4.43c.1.014.2.04.311.045,16.489.76,32.9-1.723,49.367-2.144,14.535-.372,29.066.206,43.572,1.089,11.8,1.8,23.616,3.419,35.58,3.108q5.163.837,10.322,1.7c9.8,1.648,20.311,2.519,29.736,5.768a31.736,31.736,0,0,1,12.989,8.455c5.169,5.649,2.021,10.735-2.821,15.262-2.828,2.642,1.422,6.878,4.242,4.242C243.326,91.341,245.8,82.573,237.742,74.344Z"/><path class="b" d="M135.486,8.326A5.324,5.324,0,0,0,127,5.906c-4.163,3.33-5.8,9.7-6.121,14.713-.251,3.855,5.75,3.84,6,0a17.016,17.016,0,0,1,2.207-7.678c1.818-3.123,1.039-1.223.788,1.288-.416,4.163-.325,8.44-.486,12.62L128.377,53.06c-.149,3.862,5.852,3.855,6,0q.448-11.649.9-23.3l.449-11.649C135.843,15.031,136.628,11.288,135.486,8.326Z"/><path class="b" d="M159.849,38.633c-1.672-.216-3.343-.372-5.016-.5-.584-2.856-5.164-3.735-5.774-.376-.007.037-.012.074-.019.111-1.7-.026-3.4-.024-5.1.04-3.849.145-3.867,6.146,0,6,1.413-.053,2.823-.07,4.232-.061a84.046,84.046,0,0,0-.518,11.461c.094,3.855,6.094,3.869,6,0a80.553,80.553,0,0,1,.509-11.22c1.9.131,3.8.3,5.691.544C163.668,45.126,163.631,39.121,159.849,38.633Z"/><path class="b" d="M117.451,36.512c-1.385.145-2.772.255-4.158.349-.323-3.635-6.079-3.587-5.974.208v.041q-1.767.026-3.538,0c-3.862-.068-3.862,5.932,0,6,1.237.021,2.472.018,3.706,0l.235,8.429c.107,3.853,6.108,3.87,6,0l-.242-8.685c1.323-.091,2.647-.2,3.97-.337C121.253,42.115,121.293,36.11,117.451,36.512Z"/><path class="c" d="M236.083,81.42c-.02,1.749.227,3.282-.959,4.716a9.048,9.048,0,0,1-4.453,2.508c-3.674,1.146-2.106,6.94,1.595,5.786a15.193,15.193,0,0,0,7.494-4.522c2.137-2.607,2.286-5.251,2.323-8.488C242.128,77.559,236.128,77.556,236.083,81.42Z"/><path class="c" d="M240.827,82.469c-.185-1.439-1.234-3.233-3-3Q183.3,86.654,128.335,89.6c-18.219.963-36.476,1.672-54.721,1.8-11.013.08-21.756-.672-32.131-3.212a2.505,2.505,0,0,0-1.5-1.932A146.341,146.341,0,0,0,22.4,78.977c-4.182-1.4-10.67-4.536-14.776-1.309C4.5,80.123,4.612,85.433,4.461,89.051a61.534,61.534,0,0,0,1.654,16.576c4.983,21.132,20.3,39.351,38.893,50.087,16.079,9.286,34.537,13.3,53.044,14.117a2.9,2.9,0,0,0,2.093.97,298.516,298.516,0,0,0,30.2-.055,3.454,3.454,0,0,0,.692-.109c14.873,1.676,29.669-1.113,43.673-6.123,12.954-4.634,26-10.575,37.421-18.3,19.027-12.864,30.269-33.384,28.847-55.9A36.464,36.464,0,0,0,240.827,82.469Z"/><path class="a" d="M238.105,80.067c-.037-.108-.4-.986-.647-1.643a2.165,2.165,0,0,1-.224-.569c-.493-.922-.973-1.842-1.553-2.718-.171-.258-.281-.443-.355-.581-.328-.32-.722-.636-.853-.766-.382-.382-.826-.72-1.194-1.113-.023-.024-.034-.038-.052-.058l-.049-.035a13.87,13.87,0,0,1-4-4.35c-.753-.279-1.473-.538-2.136-.782-16.833-6.2-35.824-7.506-53.529-9.464Q144.2,54.747,114.707,53.7a2.769,2.769,0,0,0-1.626-.384c-19.613,1.046-39.251,2.36-58.643,5.607a233.319,233.319,0,0,0-29.133,6.682C18.742,67.6,12.162,69.993,8.533,76.2a3.127,3.127,0,0,0-.325.8,3.212,3.212,0,0,0,.435,4.81C19.131,89.276,31.573,92.455,43.92,95.38c14.309,3.391,28.717,7.6,43.316,9.5,14.083,1.831,28.629.693,42.736-.364,13.908-1.041,27.756-2.727,41.523-4.948a2.434,2.434,0,0,0,1.952.5A419.862,419.862,0,0,0,229.362,88.98c3.5-.952,8.4-2.14,10.841-5.1A12.918,12.918,0,0,1,238.105,80.067Z"/><g class="d"><path class="a" d="M235.824,82.361c-.036-.107-.4-.986-.647-1.642a2.151,2.151,0,0,1-.223-.57c-.493-.922-.973-1.841-1.553-2.717-.171-.258-.282-.444-.355-.582-.328-.32-.722-.636-.853-.766-.382-.382-.826-.72-1.194-1.112-.023-.025-.034-.038-.052-.059l-.049-.035a13.87,13.87,0,0,1-4-4.35c-.753-.279-1.473-.538-2.136-.782-16.834-6.2-35.824-7.506-53.529-9.463q-29.315-3.242-58.8-4.286a2.762,2.762,0,0,0-1.626-.385C91.188,56.658,71.55,57.973,52.158,61.22A233.493,233.493,0,0,0,23.025,67.9C16.462,69.889,9.882,72.288,6.253,78.5a3.168,3.168,0,0,0-.326.8,3.212,3.212,0,0,0,.436,4.81C16.851,91.57,29.293,94.749,41.64,97.675c14.308,3.39,28.717,7.6,43.316,9.5,14.083,1.831,28.629.693,42.736-.363,13.907-1.042,27.756-2.728,41.523-4.949a2.428,2.428,0,0,0,1.952.5,419.893,419.893,0,0,0,55.915-11.083c3.5-.952,8.4-2.139,10.841-5.1A12.919,12.919,0,0,1,235.824,82.361Z"/><g class="f"><path class="e" d="M230.429,69.039c-6.876-2.41-11.1-9.954-18.305-10.754-8.355-.928-12.653,1.491-21.051,1.144-1.5-.062-10.631-.634-12.127-.686-.091-1.426-7.319-4.513-9.152-4.576-12.056-.416-22.386-2.2-34.322-.687-.39-.232-6.093-.879-6.636-.915-28.106-1.873-58.43,1.993-85.99,9.924a2.721,2.721,0,0,0-1.784-.476c-11.411.614-30.717,3.73-36.242,14.806-5.288,10.6,8.842,20.435,18.076,24.3-1.149,2.1.414,5.389,3.262,4.4,56.8-19.765,118.422-14.692,175.586.793a2.786,2.786,0,0,0,2.169-.241,82.758,82.758,0,0,0,21.693-1.078c5.793-1.1,11.032-3.731,12.6-9.867C241.317,82.992,240.723,72.648,230.429,69.039Z"/></g></g><path class="c" d="M237.742,74.344c-8.554-8.74-19.735-10.891-31.314-12.877q-11.9-2.04-23.81-3.989a2.977,2.977,0,0,0-1.284-.229H181.2c-18.248-2.945-36.544-5.573-54.955-7.309a2.6,2.6,0,0,0-1.8.429,460.613,460.613,0,0,0-70.563,4.516c-10.265,1.466-20.506,3.466-30.051,7.647-8.375,3.67-17.4,9.257-19.32,18.893a2.949,2.949,0,0,0,1,2.914,11.1,11.1,0,0,0,4.9,6.213c3.328,1.977,6.349-3.208,3.029-5.18a4.955,4.955,0,0,1-2.413-4.766.218.218,0,0,1,0-.025c3.253-8.241,13.766-12.445,21.566-15a122.782,122.782,0,0,1,19.589-4.43c.1.014.2.04.311.045,16.489.76,32.9-1.723,49.367-2.144,14.535-.372,29.066.206,43.572,1.089,11.8,1.8,23.616,3.419,35.58,3.108q5.163.837,10.322,1.7c9.8,1.648,20.311,2.519,29.736,5.768a31.736,31.736,0,0,1,12.989,8.455c5.169,5.649,2.021,10.735-2.821,15.262-2.828,2.642,1.422,6.878,4.242,4.242C243.326,91.341,245.8,82.573,237.742,74.344Z"/><path class="b" d="M135.486,8.326A5.324,5.324,0,0,0,127,5.906c-4.163,3.33-5.8,9.7-6.121,14.713-.251,3.855,5.75,3.84,6,0a17.016,17.016,0,0,1,2.207-7.678c1.818-3.123,1.039-1.223.788,1.288-.416,4.163-.325,8.44-.486,12.62L128.377,53.06c-.149,3.862,5.852,3.855,6,0q.448-11.649.9-23.3l.449-11.649C135.843,15.031,136.628,11.288,135.486,8.326Z"/><path class="b" d="M159.849,38.633c-1.672-.216-3.343-.372-5.016-.5-.584-2.856-5.164-3.735-5.774-.376-.007.037-.012.074-.019.111-1.7-.026-3.4-.024-5.1.04-3.849.145-3.867,6.146,0,6,1.413-.053,2.823-.07,4.232-.061a84.046,84.046,0,0,0-.518,11.461c.094,3.855,6.094,3.869,6,0a80.553,80.553,0,0,1,.509-11.22c1.9.131,3.8.3,5.691.544C163.668,45.126,163.631,39.121,159.849,38.633Z"/><path class="b" d="M117.451,36.512c-1.385.145-2.772.255-4.158.349-.323-3.635-6.079-3.587-5.974.208v.041q-1.767.026-3.538,0c-3.862-.068-3.862,5.932,0,6,1.237.021,2.472.018,3.706,0l.235,8.429c.107,3.853,6.108,3.87,6,0l-.242-8.685c1.323-.091,2.647-.2,3.97-.337C121.253,42.115,121.293,36.11,117.451,36.512Z"/><path class="c" d="M236.083,81.42c-.02,1.749.227,3.282-.959,4.716a9.048,9.048,0,0,1-4.453,2.508c-3.674,1.146-2.106,6.94,1.595,5.786a15.193,15.193,0,0,0,7.494-4.522c2.137-2.607,2.286-5.251,2.323-8.488C242.128,77.559,236.128,77.556,236.083,81.42Z"/></svg>