<svg xmlns="http://www.w3.org/2000/svg" xmlns:xlink="http://www.w3.org/1999/xlink" viewBox="0 0 517.974 387.223"><defs><style>.a{fill:#d3b433;}.b{fill:#7f3f98;}.c{fill:#1b75bc;}.d{fill:#00a14b;}.e{fill:#eb5833;}.f{fill:#f3d5d2;}.g{fill:#fff;}.h{clip-path:url(#a);}.i{fill:#bba030;}.j{clip-path:url(#b);}.k{fill:#eed057;}</style><clipPath id="a"><rect class="a" x="73.201" y="72.863" width="368.88" height="236.731"/></clipPath><clipPath id="b"><rect class="a" x="108.271" y="108.119" width="67.174" height="54.816"/></clipPath></defs><title>bedbg</title><polygon class="b" points="524.628 392.87 -4.897 392.202 -3.562 -2.438 523.96 -4.441 524.628 392.87"/><rect class="c" x="26.376" y="27.255" width="463.83" height="329.941"/><path class="b" d="M202.918,96.042c-10.246-18.787-31.41-32.3-53.163-27.8a4.034,4.034,0,0,0-1.749.8,3.946,3.946,0,0,0-.618-.039c-9.655-1.183-18.162,3.854-25.222,10.312a123.555,123.555,0,0,0-19.626,23.608c-11.535,17.647-19.07,37.887-23.19,58.505-4.806,24.045-5.365,48.7-3.972,73.111,1.181,20.711,1.9,44.383,14.136,62.076a49.793,49.793,0,0,0,8.337,9.3,28.846,28.846,0,0,0,11.5,8.063,4.108,4.108,0,0,0,1.692.274,57.984,57.984,0,0,0,41.5,1.835,4.268,4.268,0,0,0,1.342-.332c.793-.331,1.568-.685,2.328-1.056a50.829,50.829,0,0,0,19.95-14.854c13.684-16.9,20.071-40.053,25.579-60.694A354.62,354.62,0,0,0,213.1,168.274C214.486,144.222,214.785,117.8,202.918,96.042ZM83.176,211.788c-.008.059-.014.117-.021.176,0-.761.008-1.522.014-2.283.092.016.183.025.276.035C83.357,210.407,83.259,211.1,83.176,211.788Zm106.372,25.338a4.545,4.545,0,0,0-.115,1.118c-4.448,13.492-8.8,27.11-14.039,40.317-4.632,11.675-11.594,23.952-23.757,29.027a4.739,4.739,0,0,0-.673.35,42.666,42.666,0,0,1-8.569,2.275c-13.344,2.1-28.041-1.451-38.468-10.2a47.373,47.373,0,0,1-6.153-10.89,98.271,98.271,0,0,1-6.822-24.7c-2.517-16.817-1.454-34.08.48-50.9,3.918-34.076,12.424-69.065,26.946-100.248,6.684-14.352,15.651-28.04,29.848-35.69a4.017,4.017,0,0,0,2.8-1.087,4.77,4.77,0,0,0,.98-.1c17.7-3.66,34.837,8.293,43.221,23.222.47.838.9,1.69,1.33,2.543A377.447,377.447,0,0,1,189.548,237.126Z"/><path class="b" d="M323.035,71.1a3.793,3.793,0,0,0-3.227-3.615c-7.4-1.556-12.077,3.994-12.91,10.857-1.057,8.709-.9,17.726-1.1,26.485-.449,19.392-.293,38.791.053,58.182.544,30.532,1.52,61.063,1.422,91.6-11.459-43.072-23.875-85.888-39.373-127.7Q258.38,101.241,247.23,76.22c-1.906-4.265-8.342-1.878-8.386,2.272Q237.625,195,236.406,311.517a4.033,4.033,0,0,0,2.689,4.023,4.729,4.729,0,0,0,4.369,1.706l3.47-.471c2.606-.353,3.456-3.409,3.143-5.535-2.5-16.991-1.9-34.346-1.947-51.469-.047-17.528-.062-35.056.077-52.584.261-32.705,1.1-65.41,3.213-98.051C271.2,158.651,286.164,210,299.793,261.523c4.658,17.606,9.166,35.25,13.674,52.895,1.263,4.946,8.814,3.866,8.839-1.2q.608-120.018,1.214-240.036A4.417,4.417,0,0,0,323.035,71.1Z"/><path class="b" d="M446,315.488l-70.638-1.365c-4.059-37.709-8.471-75.411-11.609-113.207h34.775c5.791,0,5.8-9,0-9H363.04c-2.752-36.681-3.542-73.559.629-110.162q37.788.965,75.453,4.4c5.765.53,5.729-8.474,0-9q-43.892-4.031-87.988-4.678c-3.517-.052-4.886,3.242-4.132,5.859-.008.094-.033.176-.037.272a1486.066,1486.066,0,0,0,10.982,239.762c.312,2.454,1.809,4.448,4.5,4.5l6.341.123a5.018,5.018,0,0,0,5.924.114L446,324.488C451.794,324.6,451.794,315.6,446,315.488ZM362.2,275.93q1.774,16.272,3.556,32.539Q363.795,292.218,362.2,275.93Z"/><rect class="d" x="49.558" y="49.497" width="414.249" height="284.012"/><path class="a" d="M170.982,86.564a786.765,786.765,0,0,0-83.747-1.419c-5.774.209-5.8,9.21,0,9q14.228-.517,28.456-.5a5.053,5.053,0,0,0-.083.669q-1.743,70.5.427,141.007a4.76,4.76,0,0,0-.224,1.236,308.858,308.858,0,0,0,3.495,60.4,4.488,4.488,0,0,0,4.339,3.3l4.341-.351a4.523,4.523,0,0,0,4.085-3.342,3.656,3.656,0,0,0,1.882-3.768,1449.663,1449.663,0,0,1-3.616-199.032q20.337.375,40.645,1.8C176.762,95.97,176.737,86.968,170.982,86.564Z"/><path class="a" d="M303.365,88.137a3.866,3.866,0,0,0-4.475,3.2c-3.031,14.3-4.179,28.856-5.268,43.4q-1.738,23.238-3.476,46.476-2.97,39.7-5.939,79.4c-5.79-19.2-11.5-38.484-18.259-57.329a4.244,4.244,0,0,0-.145-2.345L233.19,102.472a4.766,4.766,0,0,0-.8-1.483,4.962,4.962,0,0,0-2.457-1.826,17.977,17.977,0,0,0-7.3-.88c-2.353-.9-5.558,1.2-5.6,4.3q-1.037,75.47-2.074,150.937a869.95,869.95,0,0,0-54.811-130.962c1.27-2.727.007-6.635-3.847-6.451a9.031,9.031,0,0,0-8.813,7.309c-1.043,5.285,2.244,10.627,4.226,15.3q7.945,18.753,15.574,37.637,14.336,35.45,27.586,71.325a4.251,4.251,0,0,0,.328,1.9q5.169,12.921,10.339,25.843c2.4,6,5.407,11.878,12.832,8.729a4.487,4.487,0,0,0,1.2-.735,4.128,4.128,0,0,0,3.131-4.257l2.136-155.43c20.491,56.824,31.543,117.92,60.169,170.861,2.214,4.094,7.144,1.975,7.548-2.271q9.49-99.91,16.03-200.128A3.8,3.8,0,0,0,303.365,88.137ZM204.7,249.223a4.156,4.156,0,0,0-.1-1c.5,1.47.978,2.945,1.466,4.418Z"/><path class="a" d="M432.049,158.525c-1.525-19.576-5.357-40.7-18.157-55.28-9.53-10.857-23.788-17.606-37.288-14.54a3.833,3.833,0,0,0-2.367-.988c-14.582-.991-27.788,8.3-36.1,21.121-9.936,15.336-12.092,35.169-12.638,53.54a390.37,390.37,0,0,0,3.315,62.569c2.4,18.177,6.689,36.887,17.124,51.57a60.988,60.988,0,0,0,4.675,5.768c3.937,5.626,9.021,10.183,16.119,12.276.122.036.244.062.366.1a38.01,38.01,0,0,0,16.537,3.748c14.744-.178,27.4-10.406,35.381-23.606,9.508-15.729,11.789-35.339,13.065-53.791A426.847,426.847,0,0,0,432.049,158.525ZM403.566,267.774c-2.679,6.114-6.185,12.611-11.8,16.513-6.228,4.326-14.923,3.86-22.042,1.793a43.147,43.147,0,0,1-10.736-7.446c-2.747-3.6-4.732-7.952-6.587-12.025a136.959,136.959,0,0,1-11.945-49.834,4.394,4.394,0,0,0,.23-1.8c-1.533-22.871-1.855-46.253.785-69.059,2.169-18.743,9.884-40.593,30.368-45.565A4.377,4.377,0,0,0,373.6,99.5c17.092.8,31.546,12.665,39.452,27.388,9.789,18.233,9.761,40.021,7.773,60.078a4.309,4.309,0,0,0,.186,1.826c-2.152,17.673-4.478,35.374-8.826,52.664A167.274,167.274,0,0,1,403.566,267.774Z"/><rect class="a" x="73.608" y="72.334" width="368.298" height="237.696"/><path class="e" d="M308.321,221.831c-.909-8.174-3.066-15.746-7.72-22.612-4.669-6.886-11.065-13.695-18.494-17.606a29.577,29.577,0,0,0-4.945-2.049,47.7,47.7,0,0,0,20.614-41.509c-.568-13.213-5.491-24.948-18-30.637a41.582,41.582,0,0,0-35.193.492c-12.317,6.029-21.388,20.048-15.9,33.765,1.912,4.781,9.749,2.695,7.81-2.153-6.488-16.225,9.645-26.908,25.626-27.556.087,0,.164.022.255.02,16.973-.378,21.456,22.266,18.77,35.2a39.246,39.246,0,0,1-27.363,29.441,3.836,3.836,0,0,0-2.825,4.077c-1.372,2.184-.744,5.43,2.122,6.019a3.693,3.693,0,0,0,2.642.943c19.084-.334,32.949,15.017,37.448,32.465,4.025,15.608,2.567,38.013-13.555,46-12.542,4.3-28.514,4.424-40.089-1.853a97.882,97.882,0,0,1-18.5-12.953c-5.455-4.864-12.866-11.093-13.194-18.937-.217-5.193-8.318-5.221-8.1,0,.34,8.113,5.113,14.326,10.6,19.919a107.149,107.149,0,0,0,19.186,15.488c7.192,4.55,14.522,8.19,23.107,8.9a80.435,80.435,0,0,0,24.319-1.441,3.71,3.71,0,0,0,2.177-.165c1.071-.388,2.09-.83,3.081-1.3,12.6-4.323,23.625-13.916,26.3-27.437C310.074,238.318,309.217,229.9,308.321,221.831Z"/><rect class="e" x="93.692" y="90.459" width="326.287" height="197.29"/><path class="b" d="M305.232,183.485l-36.567-1.113c-.729-19.906-.835-39.827.182-59.753a4.521,4.521,0,0,0-3.3-4.34l-4.331-.833c-2.7-1.081-6.36.217-6.191,3.952l.006.122a316.928,316.928,0,0,1-62.954,59.206c-3.562,2.525-2.414,8.243,2.271,8.386l60.952,1.854c.039.6.082,1.207.12,1.81l3.5,55.073c-.085,3.658-.356,7.6.238,11.177.841,5.062,5.611,4.488,9.578,4.474a4.547,4.547,0,0,0,4.5-4.5c-.162-3.45-.155-6.979-.5-10.428-1.452-19.045-2.829-38.109-3.7-57.189l36.2,1.1C311.026,192.661,311.02,183.661,305.232,183.485ZM207.4,180.509a325.366,325.366,0,0,0,44.9-41.933c.285,14.462,1.369,28.93,2.384,43.371Z"/><rect class="b" x="116.957" y="109.084" width="281.499" height="157.594"/><path class="f" d="M211.776,172.475a100.611,100.611,0,0,0-13.719-15.511,17.381,17.381,0,0,0,5.459-3.406A12.027,12.027,0,0,0,207.1,143.28c-1.018-8-8.805-12.932-16.545-12.069a3.419,3.419,0,0,0-.73.171l-1.108.12a2.591,2.591,0,0,0-2.5,2.5q-1.032,11.988-.954,24.035.045,5.892.361,11.779c.1,1.79-.03,3.879.569,5.586.671,1.912,2.855,3.425,4.891,2.578a3.662,3.662,0,0,0,.551-.292,2.289,2.289,0,0,0,2.124-2.387q-.084-7.828-.166-15.658A94.169,94.169,0,0,1,207.458,175a2.571,2.571,0,0,0,3.421.9A2.521,2.521,0,0,0,211.776,172.475Zm-18.247-19.251-.18-17.014c4.283.457,8.332,3.04,8.838,7.735C202.769,149.34,198.021,151.941,193.529,153.224Z"/><path class="f" d="M231.287,236.767a100.77,100.77,0,0,0-13.719-15.512,17.344,17.344,0,0,0,5.458-3.405,12.029,12.029,0,0,0,3.589-10.279c-1.018-8-8.805-12.931-16.545-12.068a3.405,3.405,0,0,0-.73.171l-1.108.12a2.59,2.59,0,0,0-2.5,2.5q-1.033,11.988-.954,24.035.045,5.892.361,11.779c.1,1.79-.03,3.878.568,5.586.671,1.912,2.855,3.425,4.892,2.578a3.755,3.755,0,0,0,.551-.292,2.288,2.288,0,0,0,2.123-2.387l-.165-15.658a94.128,94.128,0,0,1,13.861,15.356,2.571,2.571,0,0,0,3.421.9A2.521,2.521,0,0,0,231.287,236.767Zm-18.248-19.251-.18-17.014c4.284.457,8.333,3.04,8.839,7.734C222.28,213.631,217.532,216.233,213.039,217.516Z"/><path class="f" d="M234.962,172.7q-3.33.085-6.66.11-1.264.009-2.528.007-.915-8.7-1.491-17.422h8.643a2.5,2.5,0,0,0,0-5h-8.94c-.01-.178-.023-.357-.033-.535-.191-3.655-.095-7.391-.509-11.026a14.709,14.709,0,0,0-.413-2.176h7.45a2.5,2.5,0,0,0,0-5H218.862c-.1-.038-.191-.091-.3-.124a2.885,2.885,0,0,0-.3-.059c-.083-.023-.168-.034-.252-.049h0a2.3,2.3,0,0,0-2.838,1.7,2.163,2.163,0,0,0-.22,1.03,2.74,2.74,0,0,0,.269,1.054q.837,14.012,2.207,27.983.361,3.672.762,7.341c.236,2.157-.07,5.647,2.114,6.842a6.939,6.939,0,0,0,3.315.433q1.974.014,3.948,0,3.7-.018,7.4-.115C238.173,177.619,238.186,172.619,234.962,172.7Z"/><path class="f" d="M273.5,172.355q-8.336-19.446-15.623-39.317a3.1,3.1,0,0,0-.409-.751l-.011-.015a2.441,2.441,0,0,0-2.656-.98c-.033.009-.063.03-.1.041l-.863,0a2.537,2.537,0,0,0-2.411,1.836,434.738,434.738,0,0,0-7.028,42.9,2.516,2.516,0,0,0,2.5,2.5,2.392,2.392,0,0,0,2.295-1.664,3.219,3.219,0,0,0,1.089-1.412,49.2,49.2,0,0,0,3.012-12.366,61.543,61.543,0,0,0,10.8-.4q2.5,6.087,5.079,12.14a2.515,2.515,0,0,0,3.42.9A2.564,2.564,0,0,0,273.5,172.355Zm-19.62-14.195c.113-1.062.224-2.123.341-3.18a75.911,75.911,0,0,1,1.682-9.937q.229-.927.463-1.852,2.82,7.4,5.784,14.752A61.534,61.534,0,0,1,253.878,158.16Z"/><path class="f" d="M296.19,133.64a15.577,15.577,0,0,0-12.8-4.012,8.657,8.657,0,0,0-3.382.4,2.548,2.548,0,0,0-1.836,2.41q1.349,20.93,3.057,41.832a2.534,2.534,0,0,0,2.5,2.5l1.905-.142a2.912,2.912,0,0,0,1.863.281c8.647-1.526,14.532-9.578,15.8-17.886C304.594,150.516,302.954,139.645,296.19,133.64ZM294.9,166.683a14.252,14.252,0,0,1-7.079,5q-1.2-18.627-2.4-37.254a10.555,10.555,0,0,1,6.948,2.5,17.08,17.08,0,0,1,5.213,8.745C299.484,152.486,299.381,160.85,294.9,166.683Z"/><path class="f" d="M327.474,128.446c-3.786-.716-5.365,4.275-6.335,7.063-.727,2.091-1.359,4.214-1.927,6.355-3.3-4.612-6.765-9.135-11.357-12.51a2.509,2.509,0,0,0-3.42.9,2.572,2.572,0,0,0,.9,3.421c.491.361,1.027.8,1.635,1.343s1.208,1.126,1.779,1.721c1.151,1.2,2.218,2.469,3.244,3.773.276.35.791,1.038,1.2,1.595.5.669.983,1.343,1.47,2.017q1.526,2.112,3.048,4.225c-1.295,6.425-2.095,12.941-2.784,19.458q-.594,2.583-1.19,5.166a2.636,2.636,0,0,0,.252,1.926,2.553,2.553,0,0,0,1.494,1.149,2.711,2.711,0,0,0,1.577-.086,2.513,2.513,0,0,0,3.047-1.75,283.242,283.242,0,0,1,9.821-42.7A2.361,2.361,0,0,0,327.474,128.446Z"/><path class="f" d="M198.425,215.709c-.263-5.2-1.112-10.782-4.023-15.218-2.733-4.165-7.448-7.281-12.577-6.883-.067,0-.131.022-.2.032a14.644,14.644,0,0,0-11.879,3.978c-3.368,3.094-5.242,7.561-6.2,11.954C161.609,218.5,162,228.618,167.8,236.08c5.138,6.6,14.332,9.611,21.922,5.275,3.942-2.252,6.018-6.165,7.133-10.437A50.43,50.43,0,0,0,198.425,215.709Zm-9.193,13.984c-1.089,3.567-2.586,7.129-6.573,7.936-7.737,1.566-12.1-6.729-12.787-13.192a56.83,56.83,0,0,1,2.011-16.589c1.314-4.419,4.442-9.25,9.624-9.05.08,0,.148-.012.223-.015a3.3,3.3,0,0,0,1.586.138c-.275.041.159.111.174.117.43.189.838.438,1.248.668.762.431,1.522.87,2.247,1.362a8.2,8.2,0,0,1,2.917,3.444,17.247,17.247,0,0,1,1.167,10.03,3.129,3.129,0,0,0-.03.889c0,.044-.011.084-.011.129A47.559,47.559,0,0,1,189.232,229.693Z"/><path class="f" d="M323,215.466c-.263-5.2-1.112-10.782-4.023-15.218-2.733-4.165-7.448-7.281-12.577-6.882-.067,0-.131.022-.2.031a14.647,14.647,0,0,0-11.879,3.978c-3.368,3.095-5.242,7.562-6.2,11.954-1.942,8.924-1.553,19.047,4.252,26.508,5.138,6.606,14.332,9.612,21.922,5.276,3.942-2.252,6.018-6.165,7.133-10.437A50.44,50.44,0,0,0,323,215.466ZM313.81,229.45c-1.089,3.568-2.586,7.129-6.573,7.936-7.737,1.567-12.1-6.729-12.787-13.192a56.839,56.839,0,0,1,2.011-16.589c1.314-4.419,4.442-9.25,9.624-9.05.08,0,.148-.012.223-.015a3.278,3.278,0,0,0,1.586.138c-.274.041.16.112.174.118.43.189.839.437,1.248.668.762.43,1.522.869,2.247,1.361a8.186,8.186,0,0,1,2.917,3.445,17.244,17.244,0,0,1,1.167,10.029,3.13,3.13,0,0,0-.03.889c0,.045-.011.084-.011.13A47.552,47.552,0,0,1,313.81,229.45Z"/><path class="f" d="M280.82,236.112q.49-20.9,1.377-41.789a2.518,2.518,0,0,0-2.5-2.5l-2.085.11a2.586,2.586,0,0,0-2.3,3.374q-.322,16.736-1.334,33.445-8.281-17.288-17.277-34.22a2.152,2.152,0,0,0-2.446-1.182,2.548,2.548,0,0,0-.8.112l-1.075.336a2.555,2.555,0,0,0-1.835,2.411l1.05,41.569a1.892,1.892,0,0,0-.106.669c.029.221.059.443.089.664a2.5,2.5,0,0,0,.643,1.1l.506.391a2.5,2.5,0,0,0,1.262.342h2.133c.031,0,.06-.008.09-.009a2.217,2.217,0,0,0,2.431-2.4q-.865-16.062-1.37-32.14,8.35,16.144,16.053,32.613a2.724,2.724,0,0,0,1.895,2.241l.061.047a2.481,2.481,0,0,0,1.261.341l1.007-.074a3.446,3.446,0,0,0,1.57-.4.311.311,0,0,0,.054-.035l.506-.391a3.046,3.046,0,0,0,.439-.555,2.936,2.936,0,0,0,.162-.361,3.286,3.286,0,0,0,.155-.385c.086-.318.132-.651.2-.973q.1-.51.2-1.019a3.045,3.045,0,0,0-.015-1.334Z"/><path class="f" d="M353.813,190.07q-13.989.009-27.944,1.122a2.563,2.563,0,0,0-2.5,2.5,2.52,2.52,0,0,0,2.5,2.5c3.259-.26,6.522-.458,9.786-.628q.912,21.315,2.755,42.575a2.555,2.555,0,0,0,2.5,2.5l3.67-.006a2.537,2.537,0,0,0,2.411-3.164,351.44,351.44,0,0,1-5.082-42.177c3.967-.136,7.934-.22,11.9-.222C357.03,195.068,357.036,190.068,353.813,190.07Z"/><rect class="c" x="137.63" y="128.391" width="239.489" height="119.744"/><path class="g" d="M269.348,177.776a81.535,81.535,0,0,0-11.112-12.565,14.057,14.057,0,0,0,4.421-2.758,9.745,9.745,0,0,0,2.907-8.326c-.825-6.481-7.132-10.474-13.4-9.776a2.766,2.766,0,0,0-.591.139l-.9.1a2.1,2.1,0,0,0-2.025,2.025q-.837,9.711-.773,19.469.036,4.772.292,9.54a16.827,16.827,0,0,0,.461,4.525,3.149,3.149,0,0,0,3.962,2.089,3.011,3.011,0,0,0,.446-.237,1.853,1.853,0,0,0,1.72-1.933q-.066-6.342-.134-12.684a76.254,76.254,0,0,1,11.228,12.439,2.081,2.081,0,0,0,2.77.726A2.04,2.04,0,0,0,269.348,177.776Zm-14.78-15.594q-.073-6.889-.146-13.781c3.47.37,6.749,2.462,7.159,6.265C262.053,159.036,258.206,161.143,254.568,162.182Z"/><path class="g" d="M240.829,177.074q-2.7.069-5.394.089-1.024.007-2.048.006-.741-7.044-1.207-14.112h7a2.025,2.025,0,0,0,0-4.05h-7.241c-.008-.145-.018-.289-.026-.434-.155-2.96-.077-5.986-.413-8.931a11.833,11.833,0,0,0-.335-1.762H237.2a2.025,2.025,0,1,0,0-4.05h-9.412c-.084-.03-.154-.074-.242-.1a2.3,2.3,0,0,0-.245-.048,2.041,2.041,0,0,0-.2-.04h0a1.861,1.861,0,0,0-2.3,1.379,1.76,1.76,0,0,0-.179.835,2.217,2.217,0,0,0,.218.854q.678,11.349,1.788,22.666.293,2.975.617,5.946c.191,1.747-.056,4.574,1.712,5.542a5.625,5.625,0,0,0,2.686.351q1.6.011,3.2,0,3-.015,5.994-.093C243.431,181.057,243.441,177.007,240.829,177.074Z"/><path class="g" d="M288.409,177.074q-2.7.069-5.395.089-1.023.007-2.047.006-.741-7.044-1.208-14.112h7a2.025,2.025,0,1,0,0-4.05h-7.241c-.008-.145-.019-.289-.027-.434-.155-2.96-.077-5.986-.412-8.931a11.833,11.833,0,0,0-.335-1.762h6.035a2.025,2.025,0,1,0,0-4.05h-9.412c-.084-.03-.155-.074-.242-.1a2.3,2.3,0,0,0-.245-.048,2.006,2.006,0,0,0-.2-.04h0a1.861,1.861,0,0,0-2.3,1.379,1.76,1.76,0,0,0-.179.835,2.217,2.217,0,0,0,.218.854q.678,11.349,1.788,22.666.293,2.975.617,5.946c.191,1.747-.057,4.574,1.712,5.542a5.625,5.625,0,0,0,2.686.351q1.6.011,3.2,0,3-.015,5.994-.093C291.01,181.057,291.021,177.007,288.409,177.074Z"/><path class="g" d="M311.762,225.27q-2.7.069-5.395.089-1.023.007-2.047.006-.741-7.044-1.208-14.112h7a2.025,2.025,0,0,0,0-4.05h-7.241c-.008-.145-.019-.289-.027-.434-.155-2.96-.077-5.986-.413-8.931a11.831,11.831,0,0,0-.334-1.762h6.035a2.025,2.025,0,1,0,0-4.05h-9.412c-.084-.03-.155-.074-.242-.1a2.3,2.3,0,0,0-.245-.048,2.006,2.006,0,0,0-.2-.04h0a1.861,1.861,0,0,0-2.3,1.379,1.749,1.749,0,0,0-.179.835,2.208,2.208,0,0,0,.218.853q.678,11.351,1.787,22.667.294,2.975.618,5.946c.191,1.747-.057,4.574,1.712,5.542a5.623,5.623,0,0,0,2.686.351q1.6.011,3.2,0,3-.015,5.994-.093C314.363,229.253,314.374,225.2,311.762,225.27Z"/><path class="g" d="M254.39,209.839c-.213-4.208-.9-8.733-3.258-12.327-2.214-3.373-6.033-5.9-10.188-5.574-.054,0-.106.018-.159.025a11.866,11.866,0,0,0-9.622,3.222,18.3,18.3,0,0,0-5.021,9.683c-1.572,7.228-1.257,15.428,3.444,21.472,4.163,5.35,11.61,7.785,17.758,4.273,3.192-1.824,4.874-4.994,5.778-8.454A40.863,40.863,0,0,0,254.39,209.839Zm-7.446,11.327c-.882,2.89-2.094,5.775-5.324,6.428-6.267,1.269-9.8-5.45-10.357-10.685a45.974,45.974,0,0,1,1.629-13.437c1.064-3.58,3.6-7.493,7.8-7.331a1.755,1.755,0,0,0,.181-.012,2.654,2.654,0,0,0,1.284.112c-.222.033.129.09.141.095.348.153.679.355,1.011.541.618.349,1.233.7,1.82,1.1a6.632,6.632,0,0,1,2.363,2.79,13.969,13.969,0,0,1,.945,8.124,2.529,2.529,0,0,0-.024.72c0,.036-.009.068-.009.1A38.5,38.5,0,0,1,246.944,221.166Z"/><path class="g" d="M214.739,143.139a3.084,3.084,0,0,0-2.717,2.373,20.284,20.284,0,0,0-.3,4.626q-.168,4.8-.208,9.594-4.686.249-9.378.222-.072-6.945-.233-13.891a2.06,2.06,0,0,0-1.486-1.953,10.46,10.46,0,0,0-2.305-.241,2,2,0,0,0-2.566,1.891v.09c0,.022-.007.041-.007.064s.006.035.006.053q-.249,17.256.765,34.5a2.121,2.121,0,0,0,2.856,1.834,2.854,2.854,0,0,0,1-.225l.985-.418a1.985,1.985,0,0,0,1-1.748q.078-7.952.025-15.9,4.668.027,9.331-.221.018,8.207.392,16.408a2.061,2.061,0,0,0,2.472,1.924,2.006,2.006,0,0,0,2.859-1.793V145.043A1.966,1.966,0,0,0,214.739,143.139Z"/><path class="g" d="M311.435,145.362a1.879,1.879,0,0,0-.551-1.37,2.1,2.1,0,0,0-3.889.926q-1.039,17.464-1.2,34.966a1.982,1.982,0,0,0,3.43,1.352,2.089,2.089,0,0,0,2.428-1.988Q311.546,162.306,311.435,145.362Z"/><path class="g" d="M220.219,218.974c-.708-2.5-4.617-1.44-3.905,1.077a4.97,4.97,0,0,1-5.718,6.305c-4.147-.9-5.648-5.735-6.437-9.329a32.676,32.676,0,0,1-.459-13.335,19.481,19.481,0,0,1,2.131-5.973,4.762,4.762,0,0,1,4.145-2.61c1.72-.069,4.656,0,5.632,1.649.921,1.562.581,3.824.378,5.54a2.037,2.037,0,0,0,2.025,2.025,2.073,2.073,0,0,0,2.025-2.025c.29-2.453.366-5.1-.807-7.354-1.39-2.674-4.221-3.426-7-3.767a13.238,13.238,0,0,0-3.219-.022,1.411,1.411,0,0,0-.6-.066,11.256,11.256,0,0,0-8.63,6.313c-1.923,3.881-2.106,8.342-2.036,12.6a51.76,51.76,0,0,0,1.591,12.924c1.032,3.687,3.2,7.206,6.845,8.749,4.329,1.832,8.742-.321,11.757-3.517a2.089,2.089,0,0,0,.467-.757A9.2,9.2,0,0,0,220.219,218.974Z"/><path class="g" d="M290.976,227.66q-3.528-17.722-7.055-35.444a1.893,1.893,0,0,0-1.826-1.438,2.662,2.662,0,0,0-2.618.744,5.235,5.235,0,0,0-1.039,3.064l-1.11,7.2q-.991,6.434-1.984,12.867l-4.668-21.978a1.857,1.857,0,0,0-1.515-1.39c-.027-.011-.049-.025-.077-.035a3.246,3.246,0,0,0-3.882,1.83,21.54,21.54,0,0,0-1.19,4.866q-1.075,5.091-2.1,10.191-2.052,10.2-3.912,20.439a2.081,2.081,0,0,0,1.414,2.491,2.144,2.144,0,0,0,1.488-.178,1.868,1.868,0,0,0,2.312-1.38q3.339-12.674,5.722-25.566,2.574,12.111,5.146,24.223c.4,1.9,3.55,1.966,3.9,0q2.178-12.054,4.165-24.142l4.92,24.716a2.045,2.045,0,0,0,2.491,1.414A2.066,2.066,0,0,0,290.976,227.66Z"/><rect class="a" x="73.201" y="72.863" width="368.88" height="236.731"/><g class="h"><rect class="i" x="73.196" y="237.931" width="368.885" height="72.663"/></g><path class="g" d="M213.632,228.646a10.974,10.974,0,0,0-1.448-5.479,5.133,5.133,0,0,0-4.528-2.477c-.024,0-.047.008-.07.011a5.275,5.275,0,0,0-4.277,1.432,8.131,8.131,0,0,0-2.231,4.3c-.7,3.213-.559,6.857,1.53,9.543a6.2,6.2,0,0,0,7.893,1.9,5.755,5.755,0,0,0,2.567-3.758A18.14,18.14,0,0,0,213.632,228.646Zm-3.309,5.034c-.392,1.284-.931,2.566-2.366,2.857-2.786.564-4.357-2.422-4.6-4.749a20.489,20.489,0,0,1,.724-5.972c.473-1.591,1.6-3.33,3.465-3.258a.683.683,0,0,0,.08-.006,1.175,1.175,0,0,0,.571.05c-.1.015.058.04.063.042.155.069.3.158.449.241.275.155.548.313.809.49a2.95,2.95,0,0,1,1.05,1.24,6.2,6.2,0,0,1,.42,3.611,1.147,1.147,0,0,0-.01.32c0,.016,0,.03,0,.046A17.1,17.1,0,0,1,210.323,233.68Z"/><path class="g" d="M198.446,236.078q.177-7.524.5-15.044a.907.907,0,0,0-.9-.9l-.75.04a.931.931,0,0,0-.829,1.214q-.115,6.025-.48,12.041-2.981-6.224-6.22-12.32a.774.774,0,0,0-.88-.425.912.912,0,0,0-.288.04l-.387.121a.919.919,0,0,0-.66.868l.378,14.965a.67.67,0,0,0-.039.241l.032.239a.9.9,0,0,0,.232.4l.182.141a.907.907,0,0,0,.454.123h.768c.012,0,.022,0,.033,0a.8.8,0,0,0,.875-.865q-.312-5.782-.493-11.571,3.006,5.813,5.779,11.741a.854.854,0,0,0,.392.661.871.871,0,0,0,.29.146l.022.016a.885.885,0,0,0,.454.123l.362-.026a1.231,1.231,0,0,0,.565-.144.082.082,0,0,0,.02-.012l.182-.141a1.077,1.077,0,0,0,.158-.2.935.935,0,0,0,.058-.13.947.947,0,0,0,.056-.138c.031-.115.048-.235.071-.351l.073-.366a.675.675,0,0,0,.016-.359A.624.624,0,0,0,198.446,236.078Z"/><path class="g" d="M224.724,219.5q-5.036,0-10.06.4a.923.923,0,0,0-.9.9.907.907,0,0,0,.9.9c1.173-.094,2.348-.165,3.523-.226q.328,7.674.992,15.327a.919.919,0,0,0,.9.9l1.321,0a.913.913,0,0,0,.868-1.139,126.59,126.59,0,0,1-1.829-15.184c1.428-.049,2.856-.079,4.285-.08A.9.9,0,0,0,224.724,219.5Z"/><path class="g" d="M245.313,221.984a1.217,1.217,0,0,0-1.62-1.1,1.378,1.378,0,0,0-.914.379,2.737,2.737,0,0,0-.629,1.779c-.2,1.534-.279,3.079-.366,4.622-.084,1.491-.162,2.989-.393,4.466a19.749,19.749,0,0,1-.438,2.1q-.156.585-.357,1.155c-.02.058-.087.247-.146.421a2.074,2.074,0,0,1-1.446.363c-2.5-.262-2.8-3.638-2.874-5.536-.121-3.046-.118-6.1-.034-9.147a1.156,1.156,0,0,0-1.612-1.086,2.85,2.85,0,0,0-.649.09,1.034,1.034,0,0,0-.733.964,55,55,0,0,0-.327,5.852,45.445,45.445,0,0,0,.108,5.646c.338,2.894,2.413,5.511,5.362,5.469a4.352,4.352,0,0,0,3.364-.584c2.136-1.386,2.787-3.882,3.138-6.252A54.132,54.132,0,0,0,245.313,221.984Z"/><path class="g" d="M259.189,221a1.111,1.111,0,0,0-.747-1.072.8.8,0,0,0-.546-.181l-.742.067a1.036,1.036,0,0,0-1,1,100.813,100.813,0,0,0-.405,10.613,72.629,72.629,0,0,1-4.895-10.2,1.214,1.214,0,0,0-2.168-.282.991.991,0,0,0-.22.523q-.8,7.839-1.263,15.7a1.024,1.024,0,0,0,1,1l.659.08a.737.737,0,0,0,.42-.08,1.16,1.16,0,0,0,.85-1.093l.507-10.281a75.363,75.363,0,0,0,5.889,10.448,1.21,1.21,0,0,0,2.236-.606Q259.32,228.828,259.189,221Z"/><path class="g" d="M268.932,222.781c-1.642-1.992-4.111-3.609-6.782-3.006a1.107,1.107,0,0,0-.6.346,1.04,1.04,0,0,0-.343.877q.4,7.979.8,15.959a1.224,1.224,0,0,0,.169.567,1.13,1.13,0,0,0,1.144,1.028c4.815.061,8.552-4.456,8.314-9.118A11.437,11.437,0,0,0,268.932,222.781Zm-4.007,13.1-.772-13.233c-.006-.17,0-.34-.011-.51a6.835,6.835,0,0,1,3.221,2.5,8.749,8.749,0,0,1,1.872,5.047A6.4,6.4,0,0,1,264.925,235.886Z"/><path class="g" d="M280.137,235.009h-4.113a34.963,34.963,0,0,1-.476-5.153,8.422,8.422,0,0,1,1.329.032,8.252,8.252,0,0,1,.842.169,1.242,1.242,0,0,0,.924-.121,1.2,1.2,0,0,0-.287-2.193,9.045,9.045,0,0,0-2.8-.292c.039-1.758.146-3.517.27-5.268.249.006.5,0,.747.02q.3.021.6.053c.11.012.219.026.327.039l.154.023c.432.065.861.149,1.287.247a1.2,1.2,0,0,0,.638-2.315,18.844,18.844,0,0,0-5.627-.435,1.144,1.144,0,0,0-1.153,1.472q-.345,7.52.055,15.047a1.253,1.253,0,0,0,1.72,1.075h5.561a1.2,1.2,0,0,0,0-2.4Z"/><path class="g" d="M368.163,222.307c-1.641-1.992-4.11-3.609-6.781-3.006a1.091,1.091,0,0,0-.605.346,1.043,1.043,0,0,0-.344.877q.4,7.978.8,15.959a1.2,1.2,0,0,0,.169.566,1.13,1.13,0,0,0,1.144,1.029c4.815.061,8.552-4.456,8.314-9.118A11.431,11.431,0,0,0,368.163,222.307Zm-4.006,13.105-.772-13.233c-.006-.17,0-.34-.012-.51a6.833,6.833,0,0,1,3.222,2.495,8.749,8.749,0,0,1,1.872,5.047A6.4,6.4,0,0,1,364.157,235.412Z"/><path class="g" d="M357.143,234.535h-4.114a35.1,35.1,0,0,1-.475-5.153,8.2,8.2,0,0,1,1.329.032,8.023,8.023,0,0,1,.841.169,1.244,1.244,0,0,0,.925-.121,1.2,1.2,0,0,0-.287-2.193,9.049,9.049,0,0,0-2.8-.292c.039-1.759.147-3.517.271-5.268.249,0,.5,0,.746.02.2.014.4.032.6.053l.327.038.154.023c.432.066.86.15,1.286.247a1.2,1.2,0,1,0,.638-2.314,18.838,18.838,0,0,0-5.626-.436,1.225,1.225,0,0,0-1.2,1.2,1.29,1.29,0,0,0,.046.272q-.345,7.519.056,15.046a1.253,1.253,0,0,0,1.72,1.076h5.561a1.2,1.2,0,0,0,0-2.4Z"/><path class="g" d="M292.707,235.848a28.992,28.992,0,0,0-4.545-5.027c.016-.012.035-.017.05-.03a9.927,9.927,0,0,0,2.043-2.412,6.915,6.915,0,0,0,.695-1.461,5.425,5.425,0,0,0,.173-1.759,4.625,4.625,0,0,0-.859-2.982,6.872,6.872,0,0,0-2.848-1.682.756.756,0,0,0-.325-.043,13.8,13.8,0,0,0-3-.423c-1.325-.305-2.241.93-2.19,2.177.065,1.566.5,3.178.72,4.732.464,3.282.8,6.582,1.042,9.888.041.569.619,1.236,1.265.965l.192-.08a1.069,1.069,0,0,0,1.405-1.116q-.18-2.2-.405-4.393a25.572,25.572,0,0,1,4.518,4.858C291.52,238.31,293.6,237.112,292.707,235.848Zm-6.928-6.787q-.378-3.294-.853-6.576c1.656.154,3.429.626,3.6,2.559A4.019,4.019,0,0,1,285.779,229.061Z"/><path class="g" d="M307.475,219.979l-8.737.676a1.229,1.229,0,0,0-1.2,1.2,1.208,1.208,0,0,0,1.2,1.2l2.8-.216q.179,6.49.472,12.979a1.03,1.03,0,0,0,1.473.866,1.09,1.09,0,0,0,.982-1.124l-.056-12.943,3.062-.237a1.229,1.229,0,0,0,1.2-1.2A1.209,1.209,0,0,0,307.475,219.979Z"/><path class="g" d="M320.4,220.686a1.06,1.06,0,0,0-.35-.872,1.007,1.007,0,0,0-1.053-.443c-1.183.221-1.436,1.449-1.55,2.457-.171,1.53-.268,3.07-.311,4.608-.008.271,0,.541-.008.812-1.411.082-2.823.153-4.236.185l-.072-6.585a1.2,1.2,0,0,0-1.707-1.056,1.016,1.016,0,0,0-.94.988q-.2,7.539-.18,15.082a1.015,1.015,0,0,0,1.265.964l.336-.059a1.13,1.13,0,0,0,1.387-1.127l-.063-5.808c1.41-.032,2.818-.1,4.226-.184.053,1.958.192,3.912.433,5.858a1.034,1.034,0,0,0,1,1c.02,0,.04,0,.059-.006a1.165,1.165,0,0,0,1.752-1.021Q320.155,228.084,320.4,220.686Z"/><path class="g" d="M330.973,233.983c-1.48.122-2.975.283-4.466.308q-.125-2.486-.166-4.974c.576,0,1.152-.016,1.726-.066a1.291,1.291,0,0,0,.849-.352,1.2,1.2,0,0,0,0-1.7,1.177,1.177,0,0,0-.849-.352c-.581.051-1.164.066-1.747.067q0-2.367.063-4.734c.928-.021,1.856-.058,2.782-.131a1.226,1.226,0,0,0,1.2-1.2,1.214,1.214,0,0,0-1.2-1.2c-1.353.109-2.709.158-4.066.159a1.213,1.213,0,0,0-1.487,1.134,130.147,130.147,0,0,0,.24,14.487,1.266,1.266,0,0,0,.146.515,1.247,1.247,0,0,0,.115.171l.012.016a1.235,1.235,0,0,0,.969.547,41.436,41.436,0,0,0,5.879-.3,1.2,1.2,0,0,0,0-2.4Z"/><path class="g" d="M346.51,229.4a4.518,4.518,0,0,0-1.831-1.837,4.439,4.439,0,0,0,1.15-4.1c-.475-1.7-2.213-2.63-3.752-3.213a.768.768,0,0,0-.392-.035,7.891,7.891,0,0,0-1.017-.194c-.015,0-.024-.016-.04-.02a1.32,1.32,0,0,0-1.515.592,3.1,3.1,0,0,0-.164,1.656c.017,1.166-.083,2.33-.137,3.494a59.467,59.467,0,0,0,.095,7,.925.925,0,0,0-.052.254v2.569a1.02,1.02,0,0,0,.734.964,3.526,3.526,0,0,0,.476.1.76.76,0,0,0,.328.056c.264-.023.526-.05.788-.079a6.555,6.555,0,0,0,2.5-.548c.175-.066.352-.121.523-.2a4.9,4.9,0,0,0,2.386-2.61A4.391,4.391,0,0,0,346.51,229.4Zm-2.884-5.109c.171,1.28-1,2.325-2.085,2.929-.082.018-.167.043-.251.067q-.033-2.576-.006-5.151A2.808,2.808,0,0,1,343.626,224.292ZM342.7,234.3a.544.544,0,0,1-.057.019c-.088.031-.18.053-.271.079-.28.067-.575.118-.874.159-.077-1.705-.127-3.411-.166-5.117l.034-.032a1.784,1.784,0,0,1,.171-.1l.013,0a.951.951,0,0,0,.427-.071,2.069,2.069,0,0,1,.372-.14l.01,0h0a4.713,4.713,0,0,1,.823-.008,1.9,1.9,0,0,1,.222.057,3.068,3.068,0,0,1,.3.138l.028.018a2.641,2.641,0,0,1,.3.211,2.539,2.539,0,0,1,.887,2.214A3.167,3.167,0,0,1,342.7,234.3Z"/><path class="i" d="M179.406,103.591l-.04-.027c-.045-.028-.089-.056-.137-.081a2.4,2.4,0,0,0-1.308-.364H105.6a2.438,2.438,0,0,0-2.327,3.168v59.148a2.309,2.309,0,0,0,.667,1.689c.027.032.058.061.087.092.014.012.027.027.041.039a2.306,2.306,0,0,0,1.7.68h72.175a2.3,2.3,0,0,0,1.692-.67c.028-.023.054-.051.081-.077s.034-.033.049-.052a2.3,2.3,0,0,0,.678-1.7V105.583A2.263,2.263,0,0,0,179.406,103.591Z"/><rect class="a" x="108.271" y="108.119" width="67.174" height="54.816"/><g class="j"><path class="k" d="M174.2,106.3a13.237,13.237,0,0,0-7.383-3.834,33.061,33.061,0,0,0-4.651-.591,5.306,5.306,0,0,0-4.375,1.93,15.5,15.5,0,0,0-3.653,6.28,8.62,8.62,0,0,0-1.386,4.314c-.137,3.243,1.676,5.91,4.22,7.725,4.75,3.389,11.46,4.487,16.177.459,2.355-2.012,3.1-5,3.408-7.954A10.364,10.364,0,0,0,174.2,106.3Z"/><path class="k" d="M144.07,109.947H130.982a2.5,2.5,0,0,0,0,5H144.07a2.5,2.5,0,0,0,0-5Z"/><path class="k" d="M148.881,121.831a2.528,2.528,0,0,0-3.42-.9c-3.444,2.465-2.833,2.053-6.277,4.52a2.7,2.7,0,0,0-1.149,1.494,2.5,2.5,0,0,0,3.673,2.823c3.444-2.467,2.833-2.054,6.276-4.52a2.694,2.694,0,0,0,1.149-1.494A2.552,2.552,0,0,0,148.881,121.831Z"/><path class="k" d="M157.886,128.611a2.544,2.544,0,0,0-2.5,2.5v11.634a2.5,2.5,0,0,0,5,0V131.111A2.528,2.528,0,0,0,157.886,128.611Z"/><path class="k" d="M177.183,140.906l-5.9-10.975a2.522,2.522,0,0,0-3.421-.9,2.553,2.553,0,0,0-.9,3.42l5.9,10.976a2.522,2.522,0,0,0,3.421.9A2.556,2.556,0,0,0,177.183,140.906Z"/><path class="i" d="M160.305,165.1a63.323,63.323,0,0,0-10-9.235,100.965,100.965,0,0,1-10.142-8.511c-6.735-6.408-13.322-13.1-19.453-20.084a2.506,2.506,0,0,0-3.535,0c-7.438,9.2-15.124,18.686-25.657,24.47-2.821,1.549-.3,5.868,2.523,4.317.16-.087.312-.182.47-.271.017,1.147.059,2.294.14,3.439a39.637,39.637,0,0,0,1.019,7.624,6.634,6.634,0,0,0,4.535,4.857,46.591,46.591,0,0,0,7.632,1.171,161.2,161.2,0,0,0,31.52.779,168.626,168.626,0,0,0,17.872-2.294,2.383,2.383,0,0,0,1.779-2.012A2.633,2.633,0,0,0,160.305,165.1Z"/></g></svg>