<svg xmlns="http://www.w3.org/2000/svg" viewBox="0 0 167.943 136.197"><defs><style>.a{fill:#7f3f98;}.b{fill:#1b75bc;}.c{fill:#00a14b;}.d{fill:#eb5833;}</style></defs><title>bubbles</title><path class="a" d="M52.664,54.842a7.86,7.86,0,0,0-7.1-5.361,6.444,6.444,0,0,0-4.8,2.063c-.249.189-.491.386-.717.6a15.4,15.4,0,0,0-2.786,3.248,7.516,7.516,0,0,0,.228,8.338,8.359,8.359,0,0,0,8.535,3.157,8.912,8.912,0,0,0,5.991-4.639A9.225,9.225,0,0,0,52.664,54.842Z"/><path class="b" d="M23.2,7.668a6.941,6.941,0,0,0-4.5-5.307A2.134,2.134,0,0,0,17.185,1.15,9.9,9.9,0,0,0,8.228,3.772a9.731,9.731,0,0,0-2.67,8.311,7.263,7.263,0,0,0,5.7,6.124,11.456,11.456,0,0,0,8.8-2.544A8.441,8.441,0,0,0,23.2,7.668Z"/><path class="c" d="M81.79,36.127a4.688,4.688,0,0,0-1.133-.778,5.337,5.337,0,0,0-1.913-.511,4.184,4.184,0,0,0-1.782.266,2.361,2.361,0,0,0-1.532.311,2.8,2.8,0,0,0-1.149,1.494,7.076,7.076,0,0,0-.347,4.949,4.983,4.983,0,0,0,.6,1.191A4.894,4.894,0,0,0,75.926,44.4a4.438,4.438,0,0,0,3.307.482,5.068,5.068,0,0,0,2.457-1.409A5.676,5.676,0,0,0,83.061,41.1,4.936,4.936,0,0,0,81.79,36.127Z"/><path class="b" d="M18.592,46.553c-.051-2.092-.77-4.411-2.81-5.382a5.535,5.535,0,0,0-3.852-.351,2.56,2.56,0,0,0-2.866.446,10.5,10.5,0,0,0-3.4,7.38A7.187,7.187,0,0,0,6,51.4,4.115,4.115,0,0,0,9.025,54.13a13.972,13.972,0,0,0,2.808.237,7.634,7.634,0,0,0,2.706-.45A6.039,6.039,0,0,0,17.4,51.646,8.754,8.754,0,0,0,18.592,46.553Z"/><path class="c" d="M134.242,117.043a5.011,5.011,0,0,0-2.629-4.2,5.357,5.357,0,0,0-4.283-.219,6.008,6.008,0,0,0-2.209.123,5.619,5.619,0,0,0-2.16,1.152,4.983,4.983,0,0,0-.425,7.388,7.368,7.368,0,0,0,6.57,1.411,7.75,7.75,0,0,0,3.527-1.713A4.907,4.907,0,0,0,134.242,117.043Zm-7.606.85c-.144-.03-.286-.068-.426-.111-.013-.006-.025-.014-.037-.021.03-.03.06-.062.091-.091s.048-.028.072-.042c.075-.021.151-.044.228-.06.068,0,.138,0,.207,0a4.663,4.663,0,0,1,.5.14c.115.058.231.113.341.179A6.556,6.556,0,0,1,126.636,117.893Z"/><path class="c" d="M54.108,94.565a6.2,6.2,0,0,0-6.552-2.4,2.971,2.971,0,0,0-1.808-.2,7.095,7.095,0,0,0-3.875,11.885,9.118,9.118,0,0,0,3.618,2.2,7.45,7.45,0,0,0,4.4.349,6.918,6.918,0,0,0,4.6-4.818C55.185,99.459,55.36,96.5,54.108,94.565Z"/><path class="c" d="M49.839,97.192,49.8,97.17l.011.019c.013.013.03.035.041.045s.024.02.035.03l.006.005v0l-.018-.039-.017-.018Z"/><polygon class="c" points="47.803 98.951 47.803 98.948 47.801 98.947 47.803 98.951"/><path class="a" d="M97.463,107.388a6.1,6.1,0,0,0-2.533-1.223,2.736,2.736,0,0,0-2.013-1.06c-2.554-.233-4.906,1.419-6.248,3.471a11.216,11.216,0,0,0-1.345,3.159,17.118,17.118,0,0,0-.634,3.442c-.182,2.94,2.171,5.078,4.871,5.682a8.4,8.4,0,0,0,6.738-1.265,8.6,8.6,0,0,0,3.516-6.274A7.062,7.062,0,0,0,97.463,107.388Z"/><path class="a" d="M79.141,99.2a3.01,3.01,0,0,0-.736-1.253,3.132,3.132,0,0,0-.576-.452.705.705,0,0,0-.1-.056,1.868,1.868,0,0,0-.708-.257c-.064-.05-.128-.1-.193-.149a2.481,2.481,0,0,0-1.261-.341l-.665.089a2.5,2.5,0,0,0-1.1.643,3.631,3.631,0,0,0-.875,1.478,1.242,1.242,0,0,0-.055.226,5.082,5.082,0,0,0-.1.879,5.28,5.28,0,0,0,.115.876,4.368,4.368,0,0,0,.321.814,1.126,1.126,0,0,0,.1.176,3.546,3.546,0,0,0,.539.665,3.4,3.4,0,0,0,.678.5,3.238,3.238,0,0,0,1.455.4,3.021,3.021,0,0,0,1.605-.413,3.4,3.4,0,0,0,1.164-1.14,1.179,1.179,0,0,0,.1-.176,4.072,4.072,0,0,0,.315-.787A3.223,3.223,0,0,0,79.141,99.2Z"/><path class="a" d="M160.132,100.142a7.862,7.862,0,0,0-7.1-5.362,6.45,6.45,0,0,0-4.8,2.064c-.249.189-.49.386-.717.594a15.468,15.468,0,0,0-2.786,3.249,7.516,7.516,0,0,0,.229,8.337,8.356,8.356,0,0,0,8.534,3.158,8.91,8.91,0,0,0,5.992-4.64A9.223,9.223,0,0,0,160.132,100.142Z"/><path class="c" d="M125.909,89.685a4.688,4.688,0,0,0-1.133-.778,5.316,5.316,0,0,0-1.913-.511,4.164,4.164,0,0,0-1.782.266,2.357,2.357,0,0,0-1.533.311,2.806,2.806,0,0,0-1.149,1.494,7.081,7.081,0,0,0-.346,4.949,4.9,4.9,0,0,0,1.992,2.54,4.437,4.437,0,0,0,3.307.482,5.077,5.077,0,0,0,2.457-1.409,5.676,5.676,0,0,0,1.371-2.374A4.938,4.938,0,0,0,125.909,89.685Z"/><path class="d" d="M87.441,78.38c-.05-2.092-.77-4.411-2.81-5.382a5.531,5.531,0,0,0-3.851-.351,2.562,2.562,0,0,0-2.867.446,10.494,10.494,0,0,0-3.4,7.38,7.168,7.168,0,0,0,.339,2.749,4.111,4.111,0,0,0,3.027,2.735,13.966,13.966,0,0,0,2.808.237,7.629,7.629,0,0,0,2.7-.45,6.039,6.039,0,0,0,2.863-2.271A8.746,8.746,0,0,0,87.441,78.38Z"/></svg>