<svg xmlns="http://www.w3.org/2000/svg" viewBox="0 0 253.974 145.924"><defs><style>.a{fill:#1b75bc;}.b{fill:#9d8730;}.c{fill:#7f3f98;}.d{fill:#00a14b;}.e{fill:#eb5833;}</style></defs><title>chiar</title><path class="a" d="M225.934,81.33a26.682,26.682,0,0,0-1.743-3.16,13.074,13.074,0,0,0-1.278-2.2c1.116-2.9-.3-7.016-4.22-7.527a4.69,4.69,0,0,0-2.263-.193c-14.7-1.254-28.665-6.864-43.065-9.774A244.881,244.881,0,0,0,128.9,53.933a446.453,446.453,0,0,0-45.275,1.9c-7.678.656-15.346,1.428-23.011,2.227-6.009.627-12.387.861-18.112,2.972C30.65,65.4,26.072,78.19,34.116,88.594c7.908,10.23,24.118,13.377,36.138,15.258,30.135,4.717,60.142-1.071,90.016-4.889,8.714-1.113,17.459-2.048,26.237-2.459,8.493-.4,16.807.271,25.274.486,5.467.139,11.871-1.2,14.4-6.627A10.683,10.683,0,0,0,225.934,81.33Z"/><path class="b" d="M19.571,119.277v11.38c0,6.718,10.44,6.729,10.44,0v-11.38C30.011,112.559,19.571,112.548,19.571,119.277Z"/><path class="b" d="M230.153,119.277a80.731,80.731,0,0,1-.971,12.048c-.45,2.78.721,5.617,3.646,6.421,2.49.684,5.968-.847,6.421-3.646a99.4,99.4,0,0,0,1.344-14.823C240.668,112.557,230.229,112.552,230.153,119.277Z"/><path class="c" d="M220.7,42.628C217.6,25.11,199.723,13.2,183.727,8.757c-21.7-6.024-44.058-.319-64.164,8.443a66.3,66.3,0,0,0-46.312-6.327C58.312,14.236,39.276,24.409,36.744,41.121c-.017.117-.024.229-.034.343a4.825,4.825,0,0,0-1.122,3.328q.142,8.426.286,16.851a5.355,5.355,0,0,0,5.22,5.22,880.027,880.027,0,0,0,139.972.985q8.522-.624,17.03-1.414c4.848-.454,9.811-.813,14.184-3.163C219.84,59.209,222.113,50.611,220.7,42.628Z"/><path class="d" d="M226.316,93.558c5.209-1.914,4.816-10.805-1.364-10.117A1060.577,1060.577,0,0,1,40.2,87.8c-3.135-.2-6.255,3.54-5.034,6.608,6.285,15.793,23.657,13.257,37.419,11.978,16.58-1.542,33.212-2.481,49.854-3.01,33.9-1.077,67.815-.465,101.713.149C230.055,103.634,230.774,95.6,226.316,93.558Z"/><path class="d" d="M231.14,112.692a17.078,17.078,0,0,1-3.612-9.3,5.922,5.922,0,0,0-.147-1.011c1.173-3.215-.332-7.278-4.584-6.776A900.675,900.675,0,0,1,36.114,98.189c-3.328-.3-6,3.585-5.034,6.608a11.877,11.877,0,0,1-.206,8.387c-1.21,3.34,1.895,6.478,5.034,6.607q95.243,3.944,190.587.815a5.768,5.768,0,0,0,1.245-.176,5.123,5.123,0,0,0,1.527-.6C231.5,118.528,232.825,114.972,231.14,112.692Z"/><path class="e" d="M238.078,56.9c-6.595-3.992-13.1-8.47-19.921-12.057-7.478-3.934-11.722,3.278-16.117,8.306-2.079,2.379-4.23,4.578-4.038,7.931.192,3.382,2.646,6.077,4.562,8.691a164.929,164.929,0,0,0,14.094,16.781c3.417,3.557,8.449.536,8.911-3.691a34.052,34.052,0,0,0-.038-7.474,5.021,5.021,0,0,0,1.645-1.358l4.224-5.2a6.566,6.566,0,0,0,1.388-2.931l.02.012C238.571,69.4,243.824,60.377,238.078,56.9Z"/><path class="e" d="M47.129,41.812c-.237-4.177-4.2-6.2-7.854-4.507l-21.27,9.853c-6.09,2.821-.793,11.823,5.269,9.014L27.4,54.261c.063.183.135.367.218.552,3.035,6.715.666,14.894,1.282,22.006.608,7.012,5.864,10.356,12.143,6.2,5.482-3.626,7.306-10.143,7.4-16.376C48.571,58.406,47.6,50.033,47.129,41.812ZM37.14,49.749l.066,1.165c-.132-.334-.273-.668-.419-1Z"/><path class="e" d="M44.345,113.6c-1.579-13.885-3.579-27.721-6.09-41.469-1.827-10.008-3.963-26.379-17.721-25.762C8.105,46.93,8.245,61.661,8.685,70.627a303.15,303.15,0,0,0,5.163,42.337,4.54,4.54,0,0,0,1.756,2.941,5.122,5.122,0,0,0,4.986,4.731,70.539,70.539,0,0,0,19.923-2C42.525,118.147,44.6,115.8,44.345,113.6Z"/><path class="e" d="M245.323,77.141c-.051-8.188-1.839-24.252-13.892-21.592-10.143,2.238-11.467,13.655-11.85,22.22q-.841,18.8-1.645,37.6a5.284,5.284,0,0,0,5.22,5.22l13.11.083a4.75,4.75,0,0,0,3.86-1.708,4.933,4.933,0,0,0,5.076-5.036C245.243,101.667,245.4,89.4,245.323,77.141Z"/></svg>