<svg xmlns="http://www.w3.org/2000/svg" xmlns:xlink="http://www.w3.org/1999/xlink" viewBox="0 0 185.923 199.035"><defs><style>.a{fill:#1b75bc;}.b{fill:#00a14b;}.c{fill:#7f3f98;}.d{fill:#fff200;}.e{fill:#eb5833;}.f{clip-path:url(#a);}.g{clip-path:url(#b);}.h{clip-path:url(#c);}</style><clipPath id="a"><path class="a" d="M121.238,171.193c-5.586-14.926-16.1-87.984-19.929-103.491a3.6,3.6,0,0,0-.228-1.521C98.467,58.979,95.324,51.7,94.672,44a4.118,4.118,0,0,0-.215-.981q.013-5.346.028-10.691a3.613,3.613,0,0,0-.476-1.843,2.031,2.031,0,0,1-.291-.107,2.059,2.059,0,0,1-.882-.567c-.066-.072-.143-.131-.213-.2a6.32,6.32,0,0,0-.748-.422c-.273-.1-.545-.208-.823-.3a2.748,2.748,0,0,1-.37-.155,3.511,3.511,0,0,0-3.637,3.586q-.016,5.793-.03,11.585c-4.887-.974-3.655-1.232-7.1,2.485-3.435-1.343-13.538,1-16.595,3a33.447,33.447,0,0,0-7.994-16.9,3.18,3.18,0,0,0-2.629-1.2c-.707.787-1.449,1.542-2.121,2.358a7.409,7.409,0,0,0-.7,1.178,3.114,3.114,0,0,1-.7,1.087,3.75,3.75,0,0,0,.893,1.839,25.145,25.145,0,0,1,6.209,14.953c0,.084-.018.162-.015.248.8,23.963,3.52,106.061-.249,129.742a3.8,3.8,0,0,0,.75,3,4.008,4.008,0,0,0,4.439,2.835,432.639,432.639,0,0,0,56.869-12.595,3.89,3.89,0,0,0,1.008-.47A3.12,3.12,0,0,0,121.238,171.193Z"/></clipPath><clipPath id="b"><path class="b" d="M179.59,121.784c-2.281-9.426-10.316-35.481-12.625-45.036-.255-10.15-1.3-20.327-5.748-29.6-5.208-10.842-14.5-17.348-25.771-20.88a3.366,3.366,0,0,0-2.9.266c-.389-.288-.754-.6-1.153-.877A3.759,3.759,0,0,0,126.306,27c-3.133,5.332-6.049,8.572-9.494,13.7-5.051-4.7-10.58-7.041-16.761-9.917C97.3,29.1,95.087,27.508,91.1,33.119c-4.736,5.2-13.254,11.967-16.423,18.242C71.019,58.594,73.817,65,73.19,72.993c-1.618,20.588-2.477,41.242-2.852,61.887a3.75,3.75,0,0,0,4.709,3.588,84.489,84.489,0,0,1,15.263-3.5,3.881,3.881,0,0,0,3.72-3.72c.613-5.385,1.376-10.743,2.226-16.086L97.4,124.82c.577,4.848,2.681,47.3,3.258,52.143.541,4.556.37,10,1.778,14.4,2.3,7.2,11.756,6.207,17.813,6.388,10.334.31,26.674-4.851,36.865-6.529a3.742,3.742,0,0,0,2.731-3.587c.121-14.294-8.173-61.86-9.636-76.04.372.727,6.824,17.835,7.208,18.559a3.743,3.743,0,0,0,4.2,1.709l15.37-5.506A3.814,3.814,0,0,0,179.59,121.784Z"/></clipPath><clipPath id="c"><path class="c" d="M184.3,113.025C178.712,98.1,172.338,83.209,168.512,67.7a3.61,3.61,0,0,0-.227-1.521c-2.615-7.2-5.757-14.481-6.41-22.186a4.022,4.022,0,0,0-.215-.981q.014-5.346.028-10.691a3.524,3.524,0,0,0-.71-2.22c-.945-.467-1.889-.935-2.853-1.361a3.536,3.536,0,0,0-3.877,3.581q-.015,5.793-.03,11.585c-4.888-.974-11.751,5.864-10.7,11.4-1.081-5.512-9.942-7.917-13-5.917a33.43,33.43,0,0,0-7.994-16.9,3.3,3.3,0,0,0-2.043-1.171,57.873,57.873,0,0,1-4.133,4.485,3.746,3.746,0,0,0,.915,1.947,25.145,25.145,0,0,1,6.209,14.953c0,.084-.018.162-.015.248a375.47,375.47,0,0,1-4.391,71.575,3.8,3.8,0,0,0,.749,3,4.008,4.008,0,0,0,4.439,2.835,432.635,432.635,0,0,0,56.869-12.594,3.874,3.874,0,0,0,1.008-.47A3.122,3.122,0,0,0,184.3,113.025Z"/></clipPath></defs><title>clothes</title><path class="d" d="M85.906,38.9A104.179,104.179,0,0,1,58.864,26.622c-3.7-2.287-7.691-4.529-10.913-7.477-1.455-1.332-3.519-3.23-3.844-5.33-.662-4.29,3.342-6.279,6.921-5.42,4.654,1.117,6.639-6.056,1.978-7.174C42.437-1.316,34.892,7.582,37.348,16.432A393.1,393.1,0,0,1,8.1,49.826c-2.686,2.736.057,7,3.62,6.217a449.06,449.06,0,0,1,73.2-9.841C89.01,45.992,90.085,40.047,85.906,38.9ZM58.893,35.316q4.34,2.516,8.848,4.666a461.165,461.165,0,0,0-46.18,6.475q10.393-11.251,19.875-23.3C46.224,28.229,53.009,31.906,58.893,35.316Z"/><path class="e" d="M111.651,121.784c-2.28-9.426-10.315-35.481-12.625-45.036-.255-10.15-1.3-20.327-5.747-29.6-5.208-10.842-14.5-17.348-25.771-20.88a3.368,3.368,0,0,0-2.9.266c-.388-.288-.754-.6-1.153-.877A3.76,3.76,0,0,0,58.367,27q-4.7,8-9.866,15.684c-5.05-4.7-10.207-9.025-16.389-11.9-3.358-1.819-4.964-3.271-8.956,2.34C18.42,38.319,9.9,45.086,6.733,51.361,3.081,58.594,2.1,80.44,1.72,101.085a3.75,3.75,0,0,0,4.709,3.588c5-1.616,6.74-2.884,11.961-3.555a3.882,3.882,0,0,0,3.72-3.72c.612-5.385,1.543-17.867,2.392-23.21.383,3.221,4.58,47.412,4.963,50.632.576,4.848,1.345,24.761,1.921,29.609.542,4.557.37,10,1.779,14.4,2.3,7.2,11.755,6.207,17.813,6.388,10.334.31,26.781-2.044,36.972-3.722a3.742,3.742,0,0,0,2.731-3.587c.121-14.294-6.944-42.134-8.408-56.314.373.727,6.825,17.835,7.209,18.559a3.742,3.742,0,0,0,4.2,1.709l15.371-5.506A3.814,3.814,0,0,0,111.651,121.784Z"/><path class="d" d="M114.034,38.9A104.179,104.179,0,0,1,86.992,26.622c-3.7-2.287-7.691-4.529-10.913-7.477-1.455-1.332-3.519-3.23-3.844-5.33-.662-4.29,3.342-6.279,6.921-5.42C83.81,9.512,85.8,2.339,81.134,1.221,70.565-1.316,63.02,7.582,65.476,16.432A393.1,393.1,0,0,1,36.224,49.826c-2.686,2.736.057,7,3.62,6.217a449.06,449.06,0,0,1,73.2-9.841C117.138,45.992,118.213,40.047,114.034,38.9ZM87.021,35.316q4.34,2.516,8.848,4.666a461.165,461.165,0,0,0-46.18,6.475q10.394-11.251,19.875-23.3C74.352,28.229,81.137,31.906,87.021,35.316Z"/><path class="a" d="M121.238,171.193c-5.586-14.926-16.1-87.984-19.929-103.491a3.6,3.6,0,0,0-.228-1.521C98.467,58.979,95.324,51.7,94.672,44a4.118,4.118,0,0,0-.215-.981q.013-5.346.028-10.691a3.613,3.613,0,0,0-.476-1.843,2.031,2.031,0,0,1-.291-.107,2.059,2.059,0,0,1-.882-.567c-.066-.072-.143-.131-.213-.2a6.32,6.32,0,0,0-.748-.422c-.273-.1-.545-.208-.823-.3a2.748,2.748,0,0,1-.37-.155,3.511,3.511,0,0,0-3.637,3.586q-.016,5.793-.03,11.585c-4.887-.974-3.655-1.232-7.1,2.485-3.435-1.343-13.538,1-16.595,3a33.447,33.447,0,0,0-7.994-16.9,3.18,3.18,0,0,0-2.629-1.2c-.707.787-1.449,1.542-2.121,2.358a7.409,7.409,0,0,0-.7,1.178,3.114,3.114,0,0,1-.7,1.087,3.75,3.75,0,0,0,.893,1.839,25.145,25.145,0,0,1,6.209,14.953c0,.084-.018.162-.015.248.8,23.963,3.52,106.061-.249,129.742a3.8,3.8,0,0,0,.75,3,4.008,4.008,0,0,0,4.439,2.835,432.639,432.639,0,0,0,56.869-12.595,3.89,3.89,0,0,0,1.008-.47A3.12,3.12,0,0,0,121.238,171.193Z"/><g class="f"><path class="c" d="M104.8,166,77,172.053c-8.968,1.953-18.128,4.5-27.385,3.435a2.516,2.516,0,0,0-2.5,2.5,2.56,2.56,0,0,0,2.5,2.5c9.507,1.094,19.015-1.5,28.231-3.508l28.287-6.159C109.273,170.136,107.943,165.315,104.8,166Z"/><path class="c" d="M106.384,150.959q-13.622,3.9-27.245,7.8c-8.728,2.481-17.568,4.831-26.672,5.294-3.2.162-3.221,5.163,0,5,9.4-.477,18.529-2.787,27.541-5.341,9.242-2.62,18.47-5.285,27.705-7.928C110.8,154.9,109.488,150.07,106.384,150.959Z"/><path class="c" d="M103.979,140.533A210.178,210.178,0,0,1,47.1,148.506c-3.217.007-3.223,5.007,0,5a215.438,215.438,0,0,0,58.212-8.151C108.4,144.479,107.086,139.653,103.979,140.533Z"/><path class="c" d="M104.677,129.715a266.184,266.184,0,0,1-51.843,7.27c-3.207.131-3.223,5.131,0,5a273.33,273.33,0,0,0,53.172-7.448C109.132,133.779,107.808,128.957,104.677,129.715Z"/><path class="c" d="M100.711,114.626a158.783,158.783,0,0,1-49.683,6.709c-3.219-.078-3.218,4.922,0,5a163.471,163.471,0,0,0,51.012-6.887C105.113,118.522,103.8,113.7,100.711,114.626Z"/><path class="c" d="M96.785,101.743a212.28,212.28,0,0,1-48.609,6.886c-3.212.08-3.224,5.08,0,5a218.4,218.4,0,0,0,49.938-7.065C101.224,105.749,99.905,100.924,96.785,101.743Z"/><path class="c" d="M88.225,91.1A156.14,156.14,0,0,1,47.81,95.967c-3.218-.033-3.22,4.967,0,5a161.564,161.564,0,0,0,41.745-5.048C92.67,95.122,91.35,90.3,88.225,91.1Z"/><path class="c" d="M91.728,82.779a2.555,2.555,0,0,0-3.075-1.746,162.693,162.693,0,0,1-41.922,2.035,2.521,2.521,0,0,0-2.5,2.5,2.551,2.551,0,0,0,2.5,2.5,167.825,167.825,0,0,0,43.251-2.213A2.523,2.523,0,0,0,91.728,82.779Z"/><path class="c" d="M89.41,68.061C77.29,71.578,64.578,71.092,52.1,70.6c-3.217-.127-3.212,4.874,0,5,12.915.506,26.089.919,38.636-2.721C93.824,71.988,92.512,67.161,89.41,68.061Z"/><path class="c" d="M99.235,50.344,73.854,55.706c-8.23,1.738-16.547,4-24.961,4.587a2.562,2.562,0,0,0-2.5,2.5,2.52,2.52,0,0,0,2.5,2.5c8.708-.605,17.285-2.864,25.8-4.663l25.869-5.464C103.71,54.5,102.379,49.68,99.235,50.344Z"/></g><path class="d" d="M153.844,38.9A104.179,104.179,0,0,1,126.8,26.622c-3.7-2.287-7.69-4.529-10.912-7.477-1.456-1.332-3.52-3.23-3.844-5.33-.663-4.29,3.342-6.279,6.921-5.42,4.654,1.117,6.639-6.056,1.978-7.174-10.569-2.537-18.114,6.361-15.659,15.211A393.093,393.093,0,0,1,76.035,49.826c-2.686,2.736.057,7,3.619,6.217a449.072,449.072,0,0,1,73.2-9.841C156.949,45.992,158.023,40.047,153.844,38.9Zm-27.012-3.579q4.339,2.516,8.848,4.666A461.226,461.226,0,0,0,89.5,46.457q10.394-11.251,19.875-23.3C114.163,28.229,120.947,31.906,126.832,35.316Z"/><path class="b" d="M179.59,121.784c-2.281-9.426-10.316-35.481-12.625-45.036-.255-10.15-1.3-20.327-5.748-29.6-5.208-10.842-14.5-17.348-25.771-20.88a3.366,3.366,0,0,0-2.9.266c-.389-.288-.754-.6-1.153-.877A3.759,3.759,0,0,0,126.306,27c-3.133,5.332-6.049,8.572-9.494,13.7-5.051-4.7-10.58-7.041-16.761-9.917C97.3,29.1,95.087,27.508,91.1,33.119c-4.736,5.2-13.254,11.967-16.423,18.242C71.019,58.594,73.817,65,73.19,72.993c-1.618,20.588-2.477,41.242-2.852,61.887a3.75,3.75,0,0,0,4.709,3.588,84.489,84.489,0,0,1,15.263-3.5,3.881,3.881,0,0,0,3.72-3.72c.613-5.385,1.376-10.743,2.226-16.086L97.4,124.82c.577,4.848,2.681,47.3,3.258,52.143.541,4.556.37,10,1.778,14.4,2.3,7.2,11.756,6.207,17.813,6.388,10.334.31,26.674-4.851,36.865-6.529a3.742,3.742,0,0,0,2.731-3.587c.121-14.294-8.173-61.86-9.636-76.04.372.727,6.824,17.835,7.208,18.559a3.743,3.743,0,0,0,4.2,1.709l15.37-5.506A3.814,3.814,0,0,0,179.59,121.784Z"/><g class="g"><path class="d" d="M96,122.989a69.984,69.984,0,0,1-27.812,3.659c-.642-.046-.639.954,0,1a70.7,70.7,0,0,0,28.077-3.695C96.873,123.744,96.613,122.777,96,122.989Z"/><path class="d" d="M161.037,176.089A62.966,62.966,0,0,1,137.915,187.1a65.5,65.5,0,0,1-25.768,1.162,61.762,61.762,0,0,1-13.948-3.9c-.595-.245-.854.723-.266.965a63.719,63.719,0,0,0,25.639,4.682,66.757,66.757,0,0,0,25.237-5.56,61.881,61.881,0,0,0,12.732-7.494C162.046,176.567,161.548,175.7,161.037,176.089Z"/><path class="d" d="M115.319,66.885a125.065,125.065,0,0,1-.663-13.11.5.5,0,0,0-1,0c-.082,15.655,3.38,31,5.871,46.371.709,4.371,1.337,8.755,1.786,13.162.065.633,1.065.64,1,0C120.724,97.725,116.882,82.471,115.319,66.885Z"/></g><path class="d" d="M181.237,38.9A104.179,104.179,0,0,1,154.2,26.622c-3.7-2.287-7.691-4.529-10.913-7.477-1.455-1.332-3.519-3.23-3.844-5.33-.662-4.29,3.342-6.279,6.921-5.42,4.654,1.117,6.639-6.056,1.978-7.174-10.569-2.537-18.114,6.361-15.658,15.211a393.1,393.1,0,0,1-29.252,33.394c-2.686,2.736.057,7,3.62,6.217a449.045,449.045,0,0,1,73.2-9.841C184.341,45.992,185.416,40.047,181.237,38.9Zm-27.013-3.579q4.339,2.516,8.848,4.666a461.165,461.165,0,0,0-46.18,6.475q10.394-11.251,19.875-23.3C141.555,28.229,148.34,31.906,154.224,35.316Z"/><path class="c" d="M184.3,113.025C178.712,98.1,172.338,83.209,168.512,67.7a3.61,3.61,0,0,0-.227-1.521c-2.615-7.2-5.757-14.481-6.41-22.186a4.022,4.022,0,0,0-.215-.981q.014-5.346.028-10.691a3.524,3.524,0,0,0-.71-2.22c-.945-.467-1.889-.935-2.853-1.361a3.536,3.536,0,0,0-3.877,3.581q-.015,5.793-.03,11.585c-4.888-.974-11.751,5.864-10.7,11.4-1.081-5.512-9.942-7.917-13-5.917a33.43,33.43,0,0,0-7.994-16.9,3.3,3.3,0,0,0-2.043-1.171,57.873,57.873,0,0,1-4.133,4.485,3.746,3.746,0,0,0,.915,1.947,25.145,25.145,0,0,1,6.209,14.953c0,.084-.018.162-.015.248a375.47,375.47,0,0,1-4.391,71.575,3.8,3.8,0,0,0,.749,3,4.008,4.008,0,0,0,4.439,2.835,432.635,432.635,0,0,0,56.869-12.594,3.874,3.874,0,0,0,1.008-.47A3.122,3.122,0,0,0,184.3,113.025Z"/><g class="h"><path class="e" d="M127.255,57.689c-9.652,0-9.668,15,0,15C136.906,72.689,136.922,57.689,127.255,57.689Z"/><path class="e" d="M164.8,65.493c-9.652,0-9.668,15,0,15C174.452,80.493,174.468,65.493,164.8,65.493Z"/><path class="e" d="M138.645,87.641c-9.652,0-9.668,15,0,15C148.3,102.641,148.312,87.641,138.645,87.641Z"/><path class="e" d="M167.964,107.89c-9.652,0-9.667,15,0,15S177.632,107.89,167.964,107.89Z"/><path class="e" d="M132.95,112.742c-9.652,0-9.668,15,0,15C142.6,127.742,142.618,112.742,132.95,112.742Z"/><path class="e" d="M153.832,40.392c-9.652,0-9.668,15,0,15C163.484,55.392,163.5,40.392,153.832,40.392Z"/></g></svg>