<svg xmlns="http://www.w3.org/2000/svg" viewBox="0 0 75.004 175.677"><defs><style>.a{fill:#9d8730;}.b{fill:#f9d640;}</style></defs><title>lamp</title><path class="a" d="M4.478,155.469a33.48,33.48,0,0,1,4.02-1.541,2.981,2.981,0,0,1,2.76-2.45q1.271-.173,2.582-.293Q15.049,87.09,16.26,23c.094-5.032,7.925-5.049,7.83,0Q22.88,87.049,21.671,151.1a28.924,28.924,0,0,1,10.646,2.745c4.617,2.3,5.465,7.706,1.1,10.85-7.463,5.371-31.045,8.118-30.876-5.847A3.882,3.882,0,0,1,4.478,155.469Z"/><path class="a" d="M14.244,22.244C25.356,30.913,36.541,40.8,50.789,43.57a4.039,4.039,0,0,0,2.12-.129q.89.024,1.782,0c4.817-.142,8.863-1.381,11.967-5.225a27.628,27.628,0,0,0,5.416-13.478C73.093,16.691,67.615,7.624,59.063,8.66a18.529,18.529,0,0,0-2.193.275c-13.891-.136-27.5,3.259-40.9,6.765C13.37,16.381,11.858,20.383,14.244,22.244Z"/><path class="b" d="M53.36,35.629c-2.82-.072-4.863-.675-5.234-3.814a15.377,15.377,0,0,1,.986-6.5c1.389-4.043,4.209-7.47,8.237-8.531a3.679,3.679,0,0,0,.946.011c1.231.031,2.465.081,3.7.175a4.192,4.192,0,0,0,.452-.011c2.694,2.036,1.582,8.961.66,11.493C61.3,33.409,58.886,35.769,53.36,35.629Z"/></svg>